<svg width="9" height="8" viewBox="0 0 9 8" fill="none" xmlns="http://www.w3.org/2000/svg">
<path fill-rule="evenodd" clip-rule="evenodd" d="M0.499512 4.49868C0.499512 4.36607 0.55219 4.23889 0.645958 4.14513C0.739727 4.05136 0.866903 3.99868 0.999512 3.99868H6.79251L4.64551 1.85268C4.55162 1.75879 4.49888 1.63145 4.49888 1.49868C4.49888 1.3659 4.55162 1.23857 4.64551 1.14468C4.7394 1.05079 4.86674 0.998047 4.99951 0.998047C5.13229 0.998047 5.25962 1.05079 5.35351 1.14468L8.35351 4.14468C8.40007 4.19112 8.43702 4.2463 8.46222 4.30704C8.48743 4.36779 8.50041 4.43291 8.50041 4.49868C8.50041 4.56445 8.48743 4.62957 8.46222 4.69031C8.43702 4.75106 8.40007 4.80623 8.35351 4.85268L5.35351 7.85268C5.25962 7.94657 5.13229 7.99931 4.99951 7.99931C4.86674 7.99931 4.7394 7.94657 4.64551 7.85268C4.55162 7.75879 4.49888 7.63145 4.49888 7.49868C4.49888 7.3659 4.55162 7.23857 4.64551 7.14468L6.79251 4.99868H0.999512C0.866903 4.99868 0.739727 4.946 0.645958 4.85223C0.55219 4.75846 0.499512 4.63129 0.499512 4.49868Z" fill="white"/>
</svg>
