<svg width="9" height="14" viewBox="0 0 9 14" fill="none" xmlns="http://www.w3.org/2000/svg">
<path d="M7.86132 0.305919C8.0572 0.501857 8.16724 0.767572 8.16724 1.04463C8.16724 1.32169 8.0572 1.5874 7.86132 1.78334L2.68929 6.95536L7.86132 12.1274C8.05165 12.3244 8.15696 12.5884 8.15458 12.8623C8.1522 13.1363 8.04231 13.3983 7.84859 13.5921C7.65487 13.7858 7.3928 13.8957 7.11885 13.8981C6.84489 13.9004 6.58096 13.7951 6.38389 13.6048L0.473155 7.69407C0.277275 7.49813 0.167236 7.23241 0.167236 6.95536C0.167236 6.6783 0.277275 6.41259 0.473155 6.21665L6.38389 0.305919C6.57983 0.110039 6.84555 0 7.12261 0C7.39966 0 7.66538 0.110039 7.86132 0.305919V0.305919Z" fill="#CB950B"/>
</svg>
