<svg width="7" height="4" viewBox="0 0 7 4" fill="none" xmlns="http://www.w3.org/2000/svg">
<path d="M0.632069 0.279531C0.716659 0.194966 0.831371 0.147461 0.950981 0.147461C1.07059 0.147461 1.1853 0.194966 1.26989 0.279531L3.50272 2.51237L5.73555 0.279531C5.82063 0.197363 5.93457 0.151897 6.05284 0.152924C6.17111 0.153952 6.28425 0.201392 6.36788 0.285025C6.45152 0.368659 6.49896 0.481795 6.49998 0.600066C6.50101 0.718338 6.45554 0.832281 6.37338 0.917355L3.82163 3.46911C3.73705 3.55367 3.62233 3.60118 3.50272 3.60118C3.38311 3.60118 3.2684 3.55367 3.18381 3.46911L0.632069 0.917355C0.547505 0.832766 0.5 0.718053 0.5 0.598443C0.5 0.478833 0.547505 0.36412 0.632069 0.279531Z" fill="black"/>
</svg>
