<svg width="232" height="52" viewBox="0 0 232 52" fill="none" xmlns="http://www.w3.org/2000/svg">
<path d="M116.75 28.6165C115.226 28.6165 114.056 28.2385 113.24 27.4825C112.436 26.7265 112.034 25.6225 112.034 24.1705C112.034 22.6705 112.466 21.5545 113.33 20.8225C114.206 20.0905 115.37 19.7245 116.822 19.7245C117.422 19.7245 117.938 19.7665 118.37 19.8505C118.802 19.9345 119.222 20.0725 119.63 20.2645V22.0105C119.33 21.8665 118.982 21.7525 118.586 21.6685C118.19 21.5845 117.764 21.5425 117.308 21.5425C116.396 21.5425 115.7 21.7345 115.22 22.1185C114.74 22.4905 114.5 23.1745 114.5 24.1705C114.5 25.0825 114.716 25.7485 115.148 26.1685C115.592 26.5885 116.306 26.7985 117.29 26.7985C117.71 26.7985 118.118 26.7565 118.514 26.6725C118.922 26.5885 119.3 26.4625 119.648 26.2945V28.0945C118.844 28.4425 117.878 28.6165 116.75 28.6165ZM120.823 28.4365V16.3045H123.253V20.6245C123.601 20.3605 124.027 20.1445 124.531 19.9765C125.035 19.8085 125.581 19.7245 126.169 19.7245C127.297 19.7245 128.119 19.9885 128.635 20.5165C129.151 21.0445 129.409 21.8605 129.409 22.9645V28.4365H126.979V23.0905C126.979 22.5145 126.859 22.1065 126.619 21.8665C126.391 21.6265 125.959 21.5065 125.323 21.5065C124.951 21.5065 124.573 21.5905 124.189 21.7585C123.817 21.9265 123.505 22.1365 123.253 22.3885V28.4365H120.823ZM135.192 28.6165C133.716 28.6165 132.546 28.2505 131.682 27.5185C130.818 26.7745 130.386 25.6525 130.386 24.1525C130.386 22.7965 130.746 21.7225 131.466 20.9305C132.198 20.1265 133.284 19.7245 134.724 19.7245C136.044 19.7245 137.052 20.0725 137.748 20.7685C138.456 21.4525 138.81 22.3525 138.81 23.4685V25.0165H132.636C132.768 25.7005 133.08 26.1685 133.572 26.4205C134.076 26.6725 134.784 26.7985 135.696 26.7985C136.152 26.7985 136.614 26.7565 137.082 26.6725C137.562 26.5885 137.97 26.4805 138.306 26.3485V28.0765C137.91 28.2565 137.448 28.3885 136.92 28.4725C136.392 28.5685 135.816 28.6165 135.192 28.6165ZM132.636 23.5225H136.686V23.0545C136.686 22.5625 136.542 22.1785 136.254 21.9025C135.966 21.6145 135.48 21.4705 134.796 21.4705C133.992 21.4705 133.428 21.6325 133.104 21.9565C132.792 22.2805 132.636 22.8025 132.636 23.5225ZM143.06 28.6165C142.424 28.6165 141.818 28.5685 141.242 28.4725C140.666 28.3885 140.204 28.2805 139.856 28.1485V26.1325C140.276 26.3005 140.75 26.4325 141.278 26.5285C141.806 26.6125 142.292 26.6545 142.736 26.6545C143.336 26.6545 143.756 26.6185 143.996 26.5465C144.248 26.4745 144.374 26.3125 144.374 26.0605C144.374 25.7725 144.182 25.5625 143.798 25.4305C143.426 25.2985 142.868 25.1125 142.124 24.8725C141.344 24.6085 140.744 24.2905 140.324 23.9185C139.904 23.5465 139.694 22.9945 139.694 22.2625C139.694 21.4465 139.988 20.8225 140.576 20.3905C141.176 19.9465 142.136 19.7245 143.456 19.7245C143.984 19.7245 144.482 19.7665 144.95 19.8505C145.418 19.9225 145.814 20.0125 146.138 20.1205V22.1185C145.814 21.9625 145.442 21.8485 145.022 21.7765C144.602 21.6925 144.212 21.6505 143.852 21.6505C143.336 21.6505 142.922 21.6865 142.61 21.7585C142.31 21.8305 142.16 21.9865 142.16 22.2265C142.16 22.4905 142.322 22.6765 142.646 22.7845C142.982 22.8925 143.498 23.0545 144.194 23.2705C144.878 23.4745 145.412 23.6965 145.796 23.9365C146.18 24.1765 146.45 24.4645 146.606 24.8005C146.762 25.1245 146.84 25.5325 146.84 26.0245C146.84 27.7525 145.58 28.6165 143.06 28.6165ZM150.716 28.6165C150.08 28.6165 149.474 28.5685 148.898 28.4725C148.322 28.3885 147.86 28.2805 147.512 28.1485V26.1325C147.932 26.3005 148.406 26.4325 148.934 26.5285C149.462 26.6125 149.948 26.6545 150.392 26.6545C150.992 26.6545 151.412 26.6185 151.652 26.5465C151.904 26.4745 152.03 26.3125 152.03 26.0605C152.03 25.7725 151.838 25.5625 151.454 25.4305C151.082 25.2985 150.524 25.1125 149.78 24.8725C149 24.6085 148.4 24.2905 147.98 23.9185C147.56 23.5465 147.35 22.9945 147.35 22.2625C147.35 21.4465 147.644 20.8225 148.232 20.3905C148.832 19.9465 149.792 19.7245 151.112 19.7245C151.64 19.7245 152.138 19.7665 152.606 19.8505C153.074 19.9225 153.47 20.0125 153.794 20.1205V22.1185C153.47 21.9625 153.098 21.8485 152.678 21.7765C152.258 21.6925 151.868 21.6505 151.508 21.6505C150.992 21.6505 150.578 21.6865 150.266 21.7585C149.966 21.8305 149.816 21.9865 149.816 22.2265C149.816 22.4905 149.978 22.6765 150.302 22.7845C150.638 22.8925 151.154 23.0545 151.85 23.2705C152.534 23.4745 153.068 23.6965 153.452 23.9365C153.836 24.1765 154.106 24.4645 154.262 24.8005C154.418 25.1245 154.496 25.5325 154.496 26.0245C154.496 27.7525 153.236 28.6165 150.716 28.6165ZM164.44 28.6165C163.84 28.6165 163.318 28.5385 162.874 28.3825C162.43 28.2145 162.022 27.9685 161.65 27.6445L161.524 28.4365H159.418V16.3045H161.848V20.3725C162.196 20.1565 162.586 19.9945 163.018 19.8865C163.45 19.7785 163.9 19.7245 164.368 19.7245C165.592 19.7245 166.558 20.0725 167.266 20.7685C167.986 21.4525 168.346 22.5625 168.346 24.0985C168.346 25.6345 167.992 26.7745 167.284 27.5185C166.588 28.2505 165.64 28.6165 164.44 28.6165ZM163.756 26.8345C164.536 26.8345 165.082 26.6065 165.394 26.1505C165.718 25.6945 165.88 25.0105 165.88 24.0985C165.88 23.1505 165.706 22.4845 165.358 22.1005C165.022 21.7045 164.482 21.5065 163.738 21.5065C163.366 21.5065 163.012 21.5605 162.676 21.6685C162.352 21.7765 162.076 21.9325 161.848 22.1365V26.0605C162.088 26.3125 162.37 26.5045 162.694 26.6365C163.03 26.7685 163.384 26.8345 163.756 26.8345ZM172.825 28.6165C171.805 28.6165 171.007 28.3345 170.431 27.7705C169.867 27.1945 169.585 26.3545 169.585 25.2505V19.9045H172.015V25.1965C172.015 25.7725 172.153 26.1925 172.429 26.4565C172.705 26.7085 173.119 26.8345 173.671 26.8345C174.091 26.8345 174.475 26.7505 174.823 26.5825C175.183 26.4145 175.489 26.2045 175.741 25.9525V19.9045H178.171V28.4365H175.921L175.831 27.6265C175.471 27.9145 175.045 28.1545 174.553 28.3465C174.073 28.5265 173.497 28.6165 172.825 28.6165ZM182.885 28.6165C182.249 28.6165 181.643 28.5685 181.067 28.4725C180.491 28.3885 180.029 28.2805 179.681 28.1485V26.1325C180.101 26.3005 180.575 26.4325 181.103 26.5285C181.631 26.6125 182.117 26.6545 182.561 26.6545C183.161 26.6545 183.581 26.6185 183.821 26.5465C184.073 26.4745 184.199 26.3125 184.199 26.0605C184.199 25.7725 184.007 25.5625 183.623 25.4305C183.251 25.2985 182.693 25.1125 181.949 24.8725C181.169 24.6085 180.569 24.2905 180.149 23.9185C179.729 23.5465 179.519 22.9945 179.519 22.2625C179.519 21.4465 179.813 20.8225 180.401 20.3905C181.001 19.9465 181.961 19.7245 183.281 19.7245C183.809 19.7245 184.307 19.7665 184.775 19.8505C185.243 19.9225 185.639 20.0125 185.963 20.1205V22.1185C185.639 21.9625 185.267 21.8485 184.847 21.7765C184.427 21.6925 184.037 21.6505 183.677 21.6505C183.161 21.6505 182.747 21.6865 182.435 21.7585C182.135 21.8305 181.985 21.9865 181.985 22.2265C181.985 22.4905 182.147 22.6765 182.471 22.7845C182.807 22.8925 183.323 23.0545 184.019 23.2705C184.703 23.4745 185.237 23.6965 185.621 23.9365C186.005 24.1765 186.275 24.4645 186.431 24.8005C186.587 25.1245 186.665 25.5325 186.665 26.0245C186.665 27.7525 185.405 28.6165 182.885 28.6165ZM188.586 18.3385V16.4305H191.232V18.3385H188.586ZM188.784 28.4365V21.7045H187.506L187.722 19.9045H191.214V28.4365H188.784ZM192.923 28.4365V19.9045H195.173L195.263 20.7145C195.611 20.4505 196.049 20.2225 196.577 20.0305C197.117 19.8265 197.681 19.7245 198.269 19.7245C199.397 19.7245 200.219 19.9885 200.735 20.5165C201.251 21.0445 201.509 21.8605 201.509 22.9645V28.4365H199.079V23.0905C199.079 22.5145 198.959 22.1065 198.719 21.8665C198.491 21.6265 198.059 21.5065 197.423 21.5065C197.051 21.5065 196.673 21.5905 196.289 21.7585C195.917 21.9265 195.605 22.1365 195.353 22.3885V28.4365H192.923ZM207.292 28.6165C205.816 28.6165 204.646 28.2505 203.782 27.5185C202.918 26.7745 202.486 25.6525 202.486 24.1525C202.486 22.7965 202.846 21.7225 203.566 20.9305C204.298 20.1265 205.384 19.7245 206.824 19.7245C208.144 19.7245 209.152 20.0725 209.848 20.7685C210.556 21.4525 210.91 22.3525 210.91 23.4685V25.0165H204.736C204.868 25.7005 205.18 26.1685 205.672 26.4205C206.176 26.6725 206.884 26.7985 207.796 26.7985C208.252 26.7985 208.714 26.7565 209.182 26.6725C209.662 26.5885 210.07 26.4805 210.406 26.3485V28.0765C210.01 28.2565 209.548 28.3885 209.02 28.4725C208.492 28.5685 207.916 28.6165 207.292 28.6165ZM204.736 23.5225H208.786V23.0545C208.786 22.5625 208.642 22.1785 208.354 21.9025C208.066 21.6145 207.58 21.4705 206.896 21.4705C206.092 21.4705 205.528 21.6325 205.204 21.9565C204.892 22.2805 204.736 22.8025 204.736 23.5225ZM215.16 28.6165C214.524 28.6165 213.918 28.5685 213.342 28.4725C212.766 28.3885 212.304 28.2805 211.956 28.1485V26.1325C212.376 26.3005 212.85 26.4325 213.378 26.5285C213.906 26.6125 214.392 26.6545 214.836 26.6545C215.436 26.6545 215.856 26.6185 216.096 26.5465C216.348 26.4745 216.474 26.3125 216.474 26.0605C216.474 25.7725 216.282 25.5625 215.898 25.4305C215.526 25.2985 214.968 25.1125 214.224 24.8725C213.444 24.6085 212.844 24.2905 212.424 23.9185C212.004 23.5465 211.794 22.9945 211.794 22.2625C211.794 21.4465 212.088 20.8225 212.676 20.3905C213.276 19.9465 214.236 19.7245 215.556 19.7245C216.084 19.7245 216.582 19.7665 217.05 19.8505C217.518 19.9225 217.914 20.0125 218.238 20.1205V22.1185C217.914 21.9625 217.542 21.8485 217.122 21.7765C216.702 21.6925 216.312 21.6505 215.952 21.6505C215.436 21.6505 215.022 21.6865 214.71 21.7585C214.41 21.8305 214.26 21.9865 214.26 22.2265C214.26 22.4905 214.422 22.6765 214.746 22.7845C215.082 22.8925 215.598 23.0545 216.294 23.2705C216.978 23.4745 217.512 23.6965 217.896 23.9365C218.28 24.1765 218.55 24.4645 218.706 24.8005C218.862 25.1245 218.94 25.5325 218.94 26.0245C218.94 27.7525 217.68 28.6165 215.16 28.6165ZM222.816 28.6165C222.18 28.6165 221.574 28.5685 220.998 28.4725C220.422 28.3885 219.96 28.2805 219.612 28.1485V26.1325C220.032 26.3005 220.506 26.4325 221.034 26.5285C221.562 26.6125 222.048 26.6545 222.492 26.6545C223.092 26.6545 223.512 26.6185 223.752 26.5465C224.004 26.4745 224.13 26.3125 224.13 26.0605C224.13 25.7725 223.938 25.5625 223.554 25.4305C223.182 25.2985 222.624 25.1125 221.88 24.8725C221.1 24.6085 220.5 24.2905 220.08 23.9185C219.66 23.5465 219.45 22.9945 219.45 22.2625C219.45 21.4465 219.744 20.8225 220.332 20.3905C220.932 19.9465 221.892 19.7245 223.212 19.7245C223.74 19.7245 224.238 19.7665 224.706 19.8505C225.174 19.9225 225.57 20.0125 225.894 20.1205V22.1185C225.57 21.9625 225.198 21.8485 224.778 21.7765C224.358 21.6925 223.968 21.6505 223.608 21.6505C223.092 21.6505 222.678 21.6865 222.366 21.7585C222.066 21.8305 221.916 21.9865 221.916 22.2265C221.916 22.4905 222.078 22.6765 222.402 22.7845C222.738 22.8925 223.254 23.0545 223.95 23.2705C224.634 23.4745 225.168 23.6965 225.552 23.9365C225.936 24.1765 226.206 24.4645 226.362 24.8005C226.518 25.1245 226.596 25.5325 226.596 26.0245C226.596 27.7525 225.336 28.6165 222.816 28.6165ZM116.75 42.6165C115.226 42.6165 114.056 42.2385 113.24 41.4825C112.436 40.7265 112.034 39.6225 112.034 38.1705C112.034 36.6705 112.466 35.5545 113.33 34.8225C114.206 34.0905 115.37 33.7245 116.822 33.7245C117.422 33.7245 117.938 33.7665 118.37 33.8505C118.802 33.9345 119.222 34.0725 119.63 34.2645V36.0105C119.33 35.8665 118.982 35.7525 118.586 35.6685C118.19 35.5845 117.764 35.5425 117.308 35.5425C116.396 35.5425 115.7 35.7345 115.22 36.1185C114.74 36.4905 114.5 37.1745 114.5 38.1705C114.5 39.0825 114.716 39.7485 115.148 40.1685C115.592 40.5885 116.306 40.7985 117.29 40.7985C117.71 40.7985 118.118 40.7565 118.514 40.6725C118.922 40.5885 119.3 40.4625 119.648 40.2945V42.0945C118.844 42.4425 117.878 42.6165 116.75 42.6165ZM125.089 42.6165C123.493 42.6165 122.323 42.2325 121.579 41.4645C120.835 40.6845 120.463 39.5865 120.463 38.1705C120.463 36.7545 120.835 35.6625 121.579 34.8945C122.335 34.1145 123.505 33.7245 125.089 33.7245C126.685 33.7245 127.855 34.1145 128.599 34.8945C129.355 35.6625 129.733 36.7545 129.733 38.1705C129.733 39.5865 129.361 40.6845 128.617 41.4645C127.873 42.2325 126.697 42.6165 125.089 42.6165ZM125.089 40.5465C125.869 40.5465 126.427 40.3725 126.763 40.0245C127.099 39.6645 127.267 39.0465 127.267 38.1705C127.267 37.2945 127.099 36.6825 126.763 36.3345C126.427 35.9745 125.869 35.7945 125.089 35.7945C124.321 35.7945 123.769 35.9745 123.433 36.3345C123.097 36.6825 122.929 37.2945 122.929 38.1705C122.929 39.0465 123.097 39.6645 123.433 40.0245C123.769 40.3725 124.321 40.5465 125.089 40.5465ZM131.063 42.4365V33.9045H133.313L133.403 34.7145C133.751 34.4505 134.189 34.2225 134.717 34.0305C135.257 33.8265 135.821 33.7245 136.409 33.7245C137.537 33.7245 138.359 33.9885 138.875 34.5165C139.391 35.0445 139.649 35.8605 139.649 36.9645V42.4365H137.219V37.0905C137.219 36.5145 137.099 36.1065 136.859 35.8665C136.631 35.6265 136.199 35.5065 135.563 35.5065C135.191 35.5065 134.813 35.5905 134.429 35.7585C134.057 35.9265 133.745 36.1365 133.493 36.3885V42.4365H131.063ZM144.273 42.6165C143.637 42.6165 143.031 42.5685 142.455 42.4725C141.879 42.3885 141.417 42.2805 141.069 42.1485V40.1325C141.489 40.3005 141.963 40.4325 142.491 40.5285C143.019 40.6125 143.505 40.6545 143.949 40.6545C144.549 40.6545 144.969 40.6185 145.209 40.5465C145.461 40.4745 145.587 40.3125 145.587 40.0605C145.587 39.7725 145.395 39.5625 145.011 39.4305C144.639 39.2985 144.081 39.1125 143.337 38.8725C142.557 38.6085 141.957 38.2905 141.537 37.9185C141.117 37.5465 140.907 36.9945 140.907 36.2625C140.907 35.4465 141.201 34.8225 141.789 34.3905C142.389 33.9465 143.349 33.7245 144.669 33.7245C145.197 33.7245 145.695 33.7665 146.163 33.8505C146.631 33.9225 147.027 34.0125 147.351 34.1205V36.1185C147.027 35.9625 146.655 35.8485 146.235 35.7765C145.815 35.6925 145.425 35.6505 145.065 35.6505C144.549 35.6505 144.135 35.6865 143.823 35.7585C143.523 35.8305 143.373 35.9865 143.373 36.2265C143.373 36.4905 143.535 36.6765 143.859 36.7845C144.195 36.8925 144.711 37.0545 145.407 37.2705C146.091 37.4745 146.625 37.6965 147.009 37.9365C147.393 38.1765 147.663 38.4645 147.819 38.8005C147.975 39.1245 148.053 39.5325 148.053 40.0245C148.053 41.7525 146.793 42.6165 144.273 42.6165ZM152.53 42.6165C151.51 42.6165 150.712 42.3345 150.136 41.7705C149.572 41.1945 149.29 40.3545 149.29 39.2505V33.9045H151.72V39.1965C151.72 39.7725 151.858 40.1925 152.134 40.4565C152.41 40.7085 152.824 40.8345 153.376 40.8345C153.796 40.8345 154.18 40.7505 154.528 40.5825C154.888 40.4145 155.194 40.2045 155.446 39.9525V33.9045H157.876V42.4365H155.626L155.536 41.6265C155.176 41.9145 154.75 42.1545 154.258 42.3465C153.778 42.5265 153.202 42.6165 152.53 42.6165ZM161.96 42.6165C161.132 42.6165 160.526 42.4245 160.142 42.0405C159.77 41.6565 159.584 41.0445 159.584 40.2045V30.3045H162.014V40.0065C162.014 40.3065 162.074 40.5165 162.194 40.6365C162.314 40.7445 162.488 40.7985 162.716 40.7985C163.028 40.7985 163.31 40.7565 163.562 40.6725V42.3465C163.106 42.5265 162.572 42.6165 161.96 42.6165ZM167.513 42.6165C166.529 42.6165 165.797 42.3585 165.317 41.8425C164.849 41.3265 164.615 40.6245 164.615 39.7365V35.7765H163.409V33.9045H164.615V32.0685L167.045 31.3485V33.9045H169.205L169.061 35.7765H167.045V39.5745C167.045 40.0425 167.153 40.3665 167.369 40.5465C167.585 40.7145 167.921 40.7985 168.377 40.7985C168.713 40.7985 169.061 40.7385 169.421 40.6185V42.2925C169.157 42.4005 168.869 42.4785 168.557 42.5265C168.245 42.5865 167.897 42.6165 167.513 42.6165ZM170.902 32.3385V30.4305H173.548V32.3385H170.902ZM171.1 42.4365V35.7045H169.822L170.038 33.9045H173.53V42.4365H171.1ZM175.239 42.4365V33.9045H177.489L177.579 34.7145C177.927 34.4505 178.365 34.2225 178.893 34.0305C179.433 33.8265 179.997 33.7245 180.585 33.7245C181.713 33.7245 182.535 33.9885 183.051 34.5165C183.567 35.0445 183.825 35.8605 183.825 36.9645V42.4365H181.395V37.0905C181.395 36.5145 181.275 36.1065 181.035 35.8665C180.807 35.6265 180.375 35.5065 179.739 35.5065C179.367 35.5065 178.989 35.5905 178.605 35.7585C178.233 35.9265 177.921 36.1365 177.669 36.3885V42.4365H175.239ZM189.043 45.6045C188.407 45.6045 187.753 45.5625 187.081 45.4785C186.421 45.3945 185.863 45.2745 185.407 45.1185V43.3005C185.887 43.4565 186.451 43.5765 187.099 43.6605C187.747 43.7565 188.353 43.8045 188.917 43.8045C189.745 43.8045 190.345 43.7565 190.717 43.6605C191.089 43.5765 191.275 43.4205 191.275 43.1925C191.275 43.0005 191.191 42.8685 191.023 42.7965C190.867 42.7245 190.531 42.6885 190.015 42.6885H187.693C186.169 42.6885 185.407 42.1245 185.407 40.9965C185.407 40.6485 185.503 40.3305 185.695 40.0425C185.887 39.7545 186.193 39.5265 186.613 39.3585C185.641 38.8665 185.155 38.0385 185.155 36.8745C185.155 35.7705 185.497 34.9725 186.181 34.4805C186.865 33.9765 187.879 33.7245 189.223 33.7245C189.499 33.7245 189.799 33.7485 190.123 33.7965C190.459 33.8325 190.711 33.8685 190.879 33.9045H194.083L194.029 35.4345H192.679C193.051 35.7825 193.237 36.2685 193.237 36.8925C193.237 37.7685 192.961 38.4705 192.409 38.9985C191.857 39.5145 191.041 39.7725 189.961 39.7725C189.769 39.7725 189.583 39.7665 189.403 39.7545C189.235 39.7305 189.061 39.7065 188.881 39.6825C188.521 39.7305 188.215 39.8145 187.963 39.9345C187.723 40.0545 187.603 40.2165 187.603 40.4205C187.603 40.6965 187.849 40.8345 188.341 40.8345H190.753C191.617 40.8345 192.283 41.0325 192.751 41.4285C193.219 41.8125 193.453 42.3765 193.453 43.1205C193.453 43.9605 193.075 44.5845 192.319 44.9925C191.563 45.4005 190.471 45.6045 189.043 45.6045ZM189.241 38.4045C189.961 38.4045 190.459 38.2845 190.735 38.0445C191.023 37.7925 191.167 37.3725 191.167 36.7845C191.167 36.1965 191.023 35.7705 190.735 35.5065C190.459 35.2425 189.961 35.1105 189.241 35.1105C188.557 35.1105 188.065 35.2425 187.765 35.5065C187.465 35.7585 187.315 36.1845 187.315 36.7845C187.315 37.3365 187.453 37.7445 187.729 38.0085C188.017 38.2725 188.521 38.4045 189.241 38.4045Z" fill="white"/>
<rect x="16.373" y="3.07617" width="16" height="16" fill="white"/>
<path d="M8.01216 15.5965C6.1455 15.5965 4.7215 15.1379 3.74016 14.2205C2.75883 13.3032 2.26816 12.0072 2.26816 10.3325C2.26816 8.60452 2.74816 7.28186 3.70816 6.36452C4.66816 5.43652 6.0975 4.97252 7.99616 4.97252C8.63616 4.97252 9.20683 5.02052 9.70816 5.11652C10.2095 5.21252 10.6895 5.34586 11.1482 5.51652V8.14052C10.2308 7.73519 9.2495 7.53252 8.20416 7.53252C7.2335 7.53252 6.5135 7.75652 6.04416 8.20452C5.57483 8.64186 5.34016 9.35119 5.34016 10.3325C5.34016 11.2925 5.5855 11.9859 6.07616 12.4125C6.5775 12.8285 7.2975 13.0365 8.23616 13.0365C8.74816 13.0365 9.24416 12.9885 9.72416 12.8925C10.2148 12.7965 10.7002 12.6472 11.1802 12.4445V15.0845C10.7215 15.2445 10.2362 15.3672 9.72416 15.4525C9.22283 15.5485 8.65216 15.5965 8.01216 15.5965Z" fill="white"/>
<rect x="0.373047" y="19.0762" width="16" height="16" fill="white"/>
<path d="M21.3057 21.0146H24.8604C26.4801 21.0146 27.6546 21.2464 28.3838 21.71C29.1182 22.1683 29.4854 22.9001 29.4854 23.9053C29.4854 24.5876 29.3239 25.1475 29.001 25.585C28.6833 26.0225 28.2588 26.2855 27.7275 26.374V26.4521C28.4515 26.6136 28.9723 26.9157 29.29 27.3584C29.613 27.8011 29.7744 28.3896 29.7744 29.124C29.7744 30.1657 29.3968 30.9782 28.6416 31.5615C27.8916 32.1449 26.8708 32.4365 25.5791 32.4365H21.3057V21.0146ZM23.7275 25.5381H25.1338C25.79 25.5381 26.264 25.4365 26.5557 25.2334C26.8525 25.0303 27.001 24.6943 27.001 24.2256C27.001 23.7881 26.8395 23.4756 26.5166 23.2881C26.1989 23.0954 25.6937 22.999 25.001 22.999H23.7275V25.5381ZM23.7275 27.46V30.4365H25.3057C25.9723 30.4365 26.4645 30.3089 26.7822 30.0537C27.0999 29.7985 27.2588 29.4079 27.2588 28.8818C27.2588 27.9339 26.5817 27.46 25.2275 27.46H23.7275Z" fill="white"/>
<rect x="16.373" y="35.0762" width="16" height="16" fill="white"/>
<path d="M8.01216 48.5965C6.1455 48.5965 4.7215 48.1379 3.74016 47.2205C2.75883 46.3032 2.26816 45.0072 2.26816 43.3325C2.26816 41.6045 2.74816 40.2819 3.70816 39.3645C4.66816 38.4365 6.0975 37.9725 7.99616 37.9725C8.63616 37.9725 9.20683 38.0205 9.70816 38.1165C10.2095 38.2125 10.6895 38.3459 11.1482 38.5165V41.1405C10.2308 40.7352 9.2495 40.5325 8.20416 40.5325C7.2335 40.5325 6.5135 40.7565 6.04416 41.2045C5.57483 41.6419 5.34016 42.3512 5.34016 43.3325C5.34016 44.2925 5.5855 44.9859 6.07616 45.4125C6.5775 45.8285 7.2975 46.0365 8.23616 46.0365C8.74816 46.0365 9.24416 45.9885 9.72416 45.8925C10.2148 45.7965 10.7002 45.6472 11.1802 45.4445V48.0845C10.7215 48.2445 10.2362 48.3672 9.72416 48.4525C9.22283 48.5485 8.65216 48.5965 8.01216 48.5965Z" fill="white"/>
<path d="M48.9832 49.311C46.7547 49.311 45.6038 49.3006 44.8924 49.2796C44.0345 49.2483 43.4172 49.2273 43.1766 48.6519C43.1138 48.495 42.9987 48.0869 43.4067 47.6684C44.2751 46.7791 44.9133 45.6911 45.1226 44.7704C45.3423 43.7974 46.1583 43.0441 47.1941 42.8348V42.7407H47.508C47.6544 41.9037 48.1985 41.1923 48.9413 40.8993C49.7574 40.5854 49.9875 40.1669 49.9352 39.9054C49.9038 39.7485 49.7574 39.5706 49.4958 39.5706C49.0669 39.5706 48.7007 39.33 48.5123 38.9324C48.1776 38.2105 48.5333 37.1329 49.0669 36.4947C50.971 34.2557 52.0905 32.2679 52.08 31.1589C52.0695 30.7718 52.0068 30.2905 51.9021 29.7883C51.7871 29.2652 51.379 28.899 50.9187 28.899C50.3328 28.899 49.862 28.3864 49.862 27.7586V26.1997H51.1593C50.3956 25.1744 50.0817 23.8562 50.3119 22.4856C50.6885 20.3199 52.3416 18.761 54.5282 18.5099C54.7165 18.489 54.8944 18.4785 55.0827 18.4785C57.7506 18.4785 59.9268 20.6547 59.9268 23.3226C59.9268 24.3688 59.5815 25.3732 58.9747 26.1893H60.3034V27.7481C60.3034 28.3759 59.8326 28.8885 59.2467 28.8885C58.7864 28.8885 58.3783 29.2547 58.2737 29.7674C58.1586 30.2696 58.0959 30.7613 58.0959 31.1484C58.0854 32.247 59.2049 34.2453 61.109 36.4737C61.6426 37.091 62.0088 38.1582 61.674 38.901C61.4857 39.2986 61.1195 39.5392 60.6801 39.5392C60.5231 39.5392 60.3557 39.6857 60.3139 39.8635C60.2406 40.1669 60.5336 40.5017 61.0881 40.7738C61.0985 40.7842 61.1195 40.7947 61.1404 40.7947C62.0506 41.2027 62.5737 41.8409 62.7097 42.6988H63.055V42.8035C64.0698 43.0232 64.8755 43.7765 65.0847 44.7285C65.2102 45.304 65.5137 45.9631 65.9426 46.5908C66.2983 47.1035 66.539 47.3546 66.675 47.501C66.8424 47.6789 67.2504 48.0974 66.9784 48.6728C66.8214 49.0286 66.4553 49.2587 66.0263 49.2587C60.7847 49.2587 56.6834 49.2692 53.6912 49.2692C51.7766 49.311 50.2282 49.311 48.9832 49.311Z" fill="white"/>
<path d="M67.6061 47.4491C67.491 47.2503 67.355 47.1143 67.2399 46.9992C67.1039 46.8632 66.9051 46.6435 66.5808 46.1831C66.2146 45.6391 65.9426 45.0637 65.838 44.5929C65.5974 43.5466 64.8336 42.6887 63.8292 42.2702V41.9564H63.2956C63.1387 41.5588 62.9085 41.1926 62.6051 40.8892C62.2076 40.4812 61.7786 40.2719 61.5275 40.1568C61.8832 39.9685 62.1866 39.6651 62.3645 39.2675C62.8458 38.2213 62.3959 36.8298 61.6949 36.0033C59.592 33.5342 58.8596 31.8707 58.8701 31.2011C58.8701 30.8663 58.9328 30.4269 59.027 29.977C59.0584 29.8096 59.163 29.705 59.2362 29.705C60.2511 29.705 61.0776 28.8471 61.0776 27.7799V27.0057V25.4363H60.3034C60.565 24.7772 60.701 24.0658 60.701 23.3543C60.701 20.247 58.1796 17.7256 55.0722 17.7256C54.863 17.7256 54.6433 17.736 54.434 17.757C53.1262 17.9034 51.9649 18.4579 51.0861 19.3472C50.27 20.1633 49.7364 21.2095 49.5377 22.3813C49.3598 23.4276 49.4644 24.4738 49.8411 25.4363H49.0773V27.0057V27.7799C49.0773 28.8366 49.9038 29.705 50.9187 29.705C50.9919 29.705 51.0965 29.7991 51.1384 29.977C51.2326 30.4164 51.2953 30.8558 51.2953 31.1906C51.3058 31.8707 50.5734 33.5342 48.4705 36.0033C47.7695 36.8298 47.3092 38.2213 47.8009 39.278C47.9892 39.6756 48.2926 39.9894 48.6693 40.1778H48.6588C47.8637 40.4812 47.2359 41.1508 46.9221 41.9564H46.4094V42.2598C45.3841 42.6678 44.5994 43.5362 44.3588 44.6033C44.1809 45.3985 43.616 46.3401 42.8418 47.1352C42.0885 47.9094 42.35 48.736 42.4547 48.9661C42.6221 49.3637 43.0092 49.8659 43.9089 50.0019C44.1391 50.0333 44.432 50.0542 44.8715 50.0751C45.5934 50.1065 46.7547 50.1065 48.9936 50.1065C50.2491 50.1065 51.7766 50.1065 53.7017 50.0961C56.6939 50.0856 60.7951 50.0856 66.0368 50.0856C66.7691 50.0856 67.4073 49.688 67.7003 49.0394C67.9305 48.5163 67.8991 47.9408 67.6061 47.4491ZM66.2669 48.3802C66.2565 48.4116 66.1937 48.5058 66.0263 48.5058C57.5414 48.5058 52.2474 48.5267 48.9832 48.5267C43.8671 48.5267 43.6997 48.4744 43.9612 48.2128C44.8296 47.3235 45.6143 46.1204 45.8758 44.9277C46.0432 44.1953 46.7024 43.6513 47.5289 43.5571L47.9683 43.5048H48.2299L48.2403 43.1072C48.2613 42.4376 48.6484 41.8308 49.2029 41.6216C51.5046 40.7323 50.8036 38.7758 49.4749 38.7758C48.9622 38.7758 49.0878 37.6668 49.6527 36.9972C50.8559 35.5743 52.8751 32.9378 52.8542 31.1488C52.8438 30.7198 52.781 30.1758 52.6554 29.6213C52.4671 28.732 51.7452 28.1147 50.9082 28.1147C50.7618 28.1147 50.6362 27.9578 50.6362 27.759V26.9848H53.3041C49.6737 25.2166 50.563 19.7448 54.6119 19.2949C54.7688 19.274 54.9258 19.274 55.0722 19.274C57.3112 19.274 59.1316 21.0945 59.1316 23.3334C59.1316 24.9237 58.2005 26.3256 56.8404 26.9848H59.5083V27.759C59.5083 27.9473 59.3827 28.1147 59.2362 28.1147C58.3993 28.1147 57.6878 28.732 57.489 29.6108C57.3635 30.1653 57.3007 30.7093 57.2903 31.1488C57.2693 32.9378 59.2781 35.5743 60.4813 36.9972C61.0567 37.6773 61.1718 38.7758 60.6487 38.7758C59.5501 38.7758 58.6922 40.5126 60.7219 41.496C60.9835 41.6216 61.9041 41.925 61.9355 43.1072L61.946 43.5048H62.2494L62.6784 43.5571C63.484 43.6617 64.1326 44.2058 64.3 44.9172C64.457 45.66 64.8545 46.4238 65.2835 47.0515C66.0368 48.1605 66.3506 48.1919 66.2669 48.3802Z" fill="black"/>
<path d="M89.1602 49.3348C89.5433 49.3348 89.8826 49.1268 90.0577 48.7876C90.2328 48.4483 90.2109 48.0433 89.992 47.7369C89.3572 46.8285 88.9085 45.8434 88.7443 44.9569C88.5145 43.7968 87.6498 42.9103 86.5554 42.6586C86.435 41.7064 85.833 40.8746 85.0012 40.5572C84.1038 40.207 83.8411 39.7363 83.8958 39.4408C83.9287 39.2548 84.1038 39.0468 84.4102 39.0468C85.045 39.0468 85.5704 38.4996 85.5813 37.8101C85.844 34.0013 84.5635 31.2433 81.8601 29.8424C81.1597 29.4155 80.5906 28.4196 80.4045 27.3361C80.9298 27.1609 81.3786 26.9092 81.7945 26.6684C82.4183 26.3073 82.9655 25.9899 83.7207 25.9899C83.8849 25.9899 84.06 26.0008 84.2351 26.0336C84.4321 26.0774 85.1216 26.4167 85.5923 26.6356C86.2489 26.953 86.8728 27.2485 87.2668 27.3689C87.431 27.4236 87.617 27.4455 87.814 27.4455C88.6349 27.4455 89.4995 26.9749 90.1999 26.154C90.8238 25.4098 91.1193 24.5014 91.0098 23.582C90.9223 22.794 90.5392 22.0607 90.0139 21.6558C86.2489 18.8321 84.9137 17.8361 84.4321 17.4749C83.9396 16.0631 82.5825 15.089 80.3826 14.5856C80.4373 14.0821 80.4373 13.502 80.1965 13.0752C79.8792 12.517 79.2881 12.1777 78.6534 12.1777C78.6205 12.1777 78.5986 12.1777 78.5658 12.1777C73.3343 12.4295 69.427 15.1328 67.84 19.5763C66.9645 22.0389 66.8879 24.9064 67.6321 27.6535C68.3544 30.3239 69.7773 32.7427 71.7692 34.669C71.4518 35.3694 71.0687 36.3107 71.0797 37.4489C71.0687 37.5584 71.0687 37.6569 71.0687 37.7554C71.0687 37.8429 71.0797 37.9305 71.0906 38.018V38.3026H71.1782C71.3642 38.7294 71.7801 39.0359 72.2507 39.0359C72.4368 39.0359 72.6229 39.211 72.6776 39.4189C72.7542 39.7582 72.4368 40.1413 71.813 40.4368C71.802 40.4477 71.7801 40.4477 71.7582 40.4587C71.3642 40.6338 70.2041 41.1482 70.0509 42.6476C68.9783 42.9103 68.1246 43.7968 67.9057 44.935C67.7306 45.8106 67.2928 46.7956 66.658 47.715C66.4391 48.0214 66.4172 48.4264 66.5924 48.7657C66.7675 49.1049 67.1177 49.3129 67.5008 49.3129H89.1602V49.3348Z" fill="white"/>
<path d="M65.9686 47.2654C66.5377 46.4555 66.9427 45.558 67.0849 44.8029C67.3367 43.5333 68.1903 42.5154 69.3176 42.0448C69.4709 41.4757 69.7554 40.9722 70.1713 40.5563C70.6419 40.0748 71.1673 39.8449 71.4081 39.7355C71.419 39.7245 71.4409 39.7245 71.4518 39.7136C71.4518 39.7136 71.4518 39.7136 71.4628 39.7136C71.1454 39.5713 70.8718 39.3524 70.6638 39.0788L70.2698 39.0569L70.2589 38.1266C70.237 38.0172 70.237 37.9077 70.237 37.7873C70.237 37.667 70.237 37.5575 70.2479 37.4371C70.2479 36.4302 70.5216 35.5656 70.7952 34.8761C68.9127 32.917 67.5446 30.5201 66.8332 27.8824C66.0452 24.9712 66.1218 21.9286 67.063 19.3128C67.862 17.0691 69.2629 15.1757 71.1235 13.8186C73.1483 12.3411 75.6327 11.5202 78.5221 11.3779C78.5659 11.3779 78.6096 11.3779 78.6534 11.3779C79.5837 11.3779 80.4483 11.8814 80.908 12.6913C81.1269 13.0743 81.2145 13.534 81.2364 13.9718C83.2392 14.5519 84.5416 15.5588 85.1217 16.9816C85.7674 17.4632 87.2121 18.5467 90.5174 21.0202C91.2288 21.5564 91.7213 22.4867 91.8417 23.5046C91.973 24.6538 91.6119 25.7811 90.8348 26.7004C89.9921 27.7073 88.8976 28.2874 87.825 28.2874C87.5514 28.2874 87.2887 28.2436 87.037 28.1779C86.6102 28.0466 86.0739 27.7949 85.2421 27.4009C84.8481 27.2148 84.279 26.9412 84.0601 26.8646C83.9506 26.8536 83.8412 26.8427 83.7317 26.8427C83.2173 26.8427 82.8562 27.0397 82.2104 27.4118C81.9587 27.5541 81.6851 27.7183 81.3896 27.8606C81.5975 28.4406 81.9149 28.9331 82.2761 29.163C84.3665 30.2574 86.7634 32.6653 86.4022 37.8858C86.3694 38.7395 85.855 39.4619 85.1436 39.7574C85.1874 39.7793 85.2421 39.8012 85.2968 39.823C86.249 40.1952 86.9713 41.0379 87.2559 42.0558C88.416 42.4826 89.2916 43.5114 89.5433 44.8029C89.6966 45.558 90.1015 46.4664 90.6597 47.2763C91.0537 47.8345 91.0975 48.5678 90.7801 49.1807C90.4627 49.7936 89.8388 50.1657 89.1493 50.1657H67.468C66.7785 50.1657 66.1546 49.7827 65.8372 49.1698C65.5308 48.5569 65.5746 47.8345 65.9686 47.2654ZM67.4789 48.5131H89.1603C89.3135 48.5131 89.412 48.338 89.3244 48.2066C88.7006 47.2982 88.1534 46.1928 87.9454 45.1203C87.7703 44.2228 87.0698 43.5442 86.2052 43.4348L85.7784 43.3801L85.7674 42.9532C85.7455 42.2199 85.3187 41.5632 84.7168 41.3334C82.2214 40.3703 82.9656 38.2361 84.4212 38.2361C84.6073 38.2361 84.7715 38.0391 84.7715 37.7873C84.9575 35.1387 84.4431 32.0961 81.4771 30.5748C80.2842 29.8634 79.5728 28.1998 79.529 26.7004C81.116 26.5253 81.9259 25.1791 83.7317 25.1791C83.9397 25.1791 84.1586 25.201 84.3884 25.2338C84.859 25.3105 86.8072 26.3721 87.5186 26.591C87.6061 26.6129 87.7046 26.6348 87.825 26.6348C88.2847 26.6348 88.9523 26.383 89.5762 25.6388C90.6816 24.3364 90.1562 22.7932 89.5324 22.3226C83.7536 17.9994 83.7317 17.9775 83.7317 17.9775C83.283 16.1936 81.2364 15.5369 79.4305 15.2414C79.5509 14.8036 79.7151 13.8952 79.4852 13.4902C79.3101 13.1838 78.9927 13.0087 78.6534 13.0087C78.6425 13.0087 78.6206 13.0087 78.6096 13.0087C66.5158 13.5997 64.9288 27.4337 72.7652 34.4821C72.4806 35.1935 71.8896 36.2223 71.9115 37.5137C71.9006 37.6122 71.8896 37.6998 71.8896 37.7873C71.8896 38.0391 72.0538 38.247 72.2508 38.247C73.4438 38.247 74.385 40.1295 72.1742 41.2021C71.8787 41.3444 70.8827 41.6836 70.8499 42.9642L70.8389 43.391L70.4121 43.4457C69.5584 43.5661 68.8689 44.2447 68.7047 45.1203C68.4968 46.1928 67.9496 47.2982 67.3257 48.2066C67.2272 48.338 67.3148 48.5131 67.4789 48.5131Z" fill="black"/>
<path d="M54.0648 48.9859C53.2751 48.9859 52.8887 48.129 53.4011 47.5998C54.1824 46.7933 54.9133 45.7012 55.1485 44.6427C55.3669 43.685 56.1986 42.9542 57.2403 42.7946C57.3159 41.9965 57.8703 41.3076 58.6432 41.0472C58.9876 40.9296 59.29 40.7868 59.6093 40.5096C59.9957 40.1735 59.7353 39.5687 59.2144 39.5687C58.5424 39.5687 58.1727 39.0899 58.1727 38.6194C58.1727 38.1574 58.2736 37.6953 58.4752 37.2921C61.113 31.8148 62.1043 20.5747 61.0626 15.2066C60.903 14.3834 60.1553 13.7869 59.2816 13.7869C58.8952 13.7869 58.576 13.4761 58.576 13.0981V11.5775H60.8946C60.4073 10.9223 59.1136 9.18334 58.8532 8.6373C57.5007 5.75586 58.8616 1.80752 62.7847 3.00882V1.43789C63.5912 1.5639 63.5744 1.5555 63.6752 1.5723C63.6584 1.4883 63.6584 1.4883 63.524 0.707031H66.4054C66.2626 1.4883 66.2626 1.4883 66.2542 1.5723C66.355 1.5555 66.3382 1.5639 67.1447 1.43789V3.00882C71.0426 1.80752 72.4539 5.75586 71.0594 8.6625C70.7906 9.21695 69.5221 10.9307 69.0349 11.5775H71.3535C71.3535 13.1653 71.4123 13.3249 71.1434 13.5853C71.009 13.7113 70.841 13.7869 70.6478 13.7869C69.6985 13.7869 69.0181 14.4254 68.8668 15.2066C67.8252 20.5663 68.808 31.8148 71.4543 37.2921C71.6559 37.7037 71.7567 38.149 71.7567 38.6194C71.7567 39.1151 71.3619 39.5771 70.7654 39.5771C70.2614 39.5771 70.0177 40.1903 70.4042 40.518C70.7318 40.7952 71.0258 40.9296 71.4207 41.0808C72.1599 41.3748 72.664 42.0469 72.7312 42.803C73.7561 42.971 74.5709 43.7018 74.7809 44.6427C75.0162 45.7096 75.747 46.8101 76.5283 47.6082C77.0407 48.1374 76.6459 48.9943 75.8646 48.9943H54.0648V48.9859Z" fill="#CB950B"/>
<path d="M76.9903 47.1633C76.293 46.4408 75.6209 45.458 75.4025 44.5003C75.1673 43.4502 74.344 42.6101 73.2771 42.2741C73.0587 41.4844 72.4791 40.804 71.6474 40.4763C71.3198 40.3503 71.177 40.2831 71.0342 40.1907C71.8154 40.0647 72.3867 39.3926 72.3867 38.6114C72.3867 38.0485 72.2607 37.5109 72.0254 37.0068C69.48 31.7312 68.4887 20.4827 69.4884 15.3246C69.5808 14.8374 70.0093 14.4258 70.6393 14.4258C71.3954 14.4258 71.9834 13.8125 71.9834 13.0816C71.9834 12.334 71.9834 11.6787 71.9834 10.9311C70.9922 10.9311 70.9249 10.9311 70.2949 10.9311C71.2862 9.56174 72.017 8.62927 72.1767 6.98273C72.4623 4.17689 70.7989 1.73229 67.7747 2.19433C67.7747 2.02631 67.7747 0.858614 67.7747 0.6906L67.0354 0.799809L67.1698 0.0605469C66.3046 0.0605469 63.6835 0.0605469 62.7511 0.0605469L62.8855 0.799809L62.1462 0.6906C62.1462 0.867015 62.1462 2.02631 62.1462 2.19433C58.9119 1.69868 57.2318 4.52972 57.8282 7.57078C58.0719 8.79728 58.6179 9.54494 59.6176 10.9311C58.6179 10.9311 58.5507 10.9311 57.9291 10.9311C57.9291 11.3931 57.9291 11.6955 57.9291 11.8803C57.9291 12.082 57.9291 12.1492 57.9291 12.1492C57.9291 12.334 57.9291 12.6364 57.9291 13.0984C57.9291 13.8293 58.5339 14.4258 59.2816 14.4258C59.8444 14.4258 60.3317 14.8038 60.4325 15.3246C61.4406 20.4827 60.4493 31.7312 57.8955 37.0068C57.6602 37.5025 57.5342 38.0569 57.5342 38.6198C57.5342 39.4347 58.1559 40.1067 58.9455 40.1991C58.8111 40.2831 58.6599 40.3587 58.4919 40.4175C57.509 40.7536 56.9126 41.4592 56.6774 42.2657C55.5937 42.5849 54.7536 43.4334 54.51 44.5087C54.2916 45.4748 53.6195 46.4576 52.9306 47.1633C52.0318 48.0958 52.7122 49.6331 54.0647 49.6331H75.8562C77.2255 49.6331 77.8891 48.0958 76.9903 47.1633ZM76.1082 48.2134C76.0242 48.4066 77.3347 48.3394 54.0731 48.3394C53.8799 48.3394 53.7455 48.1798 53.8715 48.0454C54.7368 47.1549 55.5265 45.9536 55.7869 44.7775C55.9465 44.055 56.6101 43.509 57.4334 43.4166L57.8703 43.3662C57.8871 42.9713 57.7946 42.0221 58.9371 41.6272C61.2809 40.8124 60.5585 38.9222 59.164 38.9222C58.9875 38.9222 58.8363 38.7794 58.8363 38.6114C58.8363 38.2417 58.9203 37.8805 59.0716 37.5613C61.8102 31.8824 62.7427 20.4155 61.7094 15.081C61.491 13.9637 60.4745 13.1488 59.2984 13.1404C59.2144 13.1404 59.2312 13.1656 59.2312 12.2164H62.205C61.827 11.7123 59.7688 9.0157 59.458 8.36044C58.1979 5.67222 59.5588 1.63988 64.1204 4.2945C64.2044 4.35331 64.0784 4.2777 64.4228 4.47092C64.448 4.09289 64.4564 3.60564 64.4648 3.38723C64.1288 3.40403 63.7843 3.43763 63.4483 3.48803V2.18593C63.7759 2.23633 64.1036 2.26993 64.4312 2.28673C64.406 1.97591 64.364 1.66508 64.3052 1.35426H65.6493C65.5905 1.66508 65.5569 1.97591 65.5317 2.28673C65.8593 2.26993 66.1869 2.23633 66.5146 2.18593V3.48803C66.1785 3.43763 65.8425 3.40403 65.5065 3.38723C65.5149 3.61404 65.5233 4.10129 65.5485 4.47092C65.9013 4.2609 66.6322 3.79886 67.5311 3.56364C70.0681 2.89158 71.135 4.81535 70.9249 6.85672C70.7905 8.21763 70.3117 8.83928 67.7579 12.2164H70.7233C70.7233 13.132 70.7485 13.1404 70.6645 13.1404C69.396 13.1404 68.4635 13.9973 68.2535 15.081C67.2118 20.4155 68.1527 31.8824 70.8913 37.5613C71.051 37.8889 71.1266 38.2333 71.1266 38.603C71.1266 38.7794 70.9754 38.9222 70.7989 38.9222C70.2529 38.9222 69.8413 39.233 69.6648 39.6699C69.2616 40.678 70.1941 41.2828 71.2022 41.6692C71.7398 41.8793 72.0926 42.3833 72.1094 42.9461L72.1178 43.3662L72.5463 43.4166C73.3528 43.5174 73.9996 44.0634 74.1592 44.7775C74.3188 45.5168 74.7053 46.2812 75.1337 46.9029C75.873 48.0034 76.1838 48.0286 76.1082 48.2134Z" fill="black"/>
</svg>
