<svg width="75" height="76" viewBox="0 0 75 76" fill="none" xmlns="http://www.w3.org/2000/svg">
<circle cx="43.2866" cy="31.727" r="31.1537" fill="#F3F5F5"/>
<path d="M58.4034 20.4216C58.2989 20.0255 57.9832 19.7167 57.5783 19.6144C48.2019 17.249 38.3416 18.4181 29.8141 22.9055C27.9401 23.8917 26.1678 25.0187 24.509 26.272C19.7628 24.6159 14.4833 25.7587 10.8886 29.2753L3.70416 36.3031C3.25617 36.7418 3.25617 37.4529 3.70416 37.8916L11.698 45.7113C11.698 45.7117 11.6985 45.7117 11.6985 45.7121L12.7294 46.7202L11.781 53.5375C11.7326 53.8854 11.8527 54.235 12.1066 54.4833L12.9416 55.3001L6.08313 62.0498C5.63603 62.4898 5.63828 63.201 6.08806 63.6379C6.53784 64.0753 7.26476 64.0731 7.71141 63.6335L14.5649 56.8882L20.3018 62.5008L10.6352 71.9156C10.1859 72.3534 10.1841 73.0645 10.6312 73.504C10.8559 73.7243 11.1505 73.8348 11.4451 73.8348C11.7379 73.8348 12.0308 73.7256 12.255 73.5076L21.9256 64.0889L22.7597 64.9053C22.9767 65.1172 23.2691 65.2339 23.5714 65.2339C23.6229 65.2339 23.6745 65.2308 23.7265 65.2238L30.6953 64.2959L31.7262 65.3045C31.7262 65.3045 31.7262 65.3049 31.7267 65.3049L39.7201 73.125C39.9443 73.3444 40.238 73.4536 40.5318 73.4536C40.826 73.4536 41.1197 73.3444 41.3439 73.125L48.5279 66.0968C52.1226 62.5802 53.2912 57.4155 51.5979 52.7724C52.8791 51.1497 54.0311 49.4156 55.0392 47.5827C59.6268 39.2401 60.8214 29.5942 58.4034 20.4216ZM12.0321 42.862L6.13963 37.0976L12.512 30.8638C15.1349 28.2974 18.8462 27.2639 22.3776 28.007C17.7775 32.0346 14.2205 37.1107 12.0321 42.862ZM23.9808 62.9228L14.1326 53.2888L14.7689 48.7154L28.6558 62.3003L23.9808 62.9228ZM46.9045 64.5083L40.5318 70.7421L34.6397 64.9777C40.5188 62.8368 45.7072 59.3572 49.8243 54.8571C50.584 58.3118 49.5275 61.9419 46.9045 64.5083ZM32.9796 63.1742L32.8428 63.2203L13.8286 44.6194L13.8757 44.4856C19.8838 27.4025 38.4425 17.4653 56.3437 21.6293C60.5999 39.141 50.4427 57.2966 32.9796 63.1742Z" fill="black"/>
<path d="M45.6003 30.7639L30.5327 34.7134C30.1367 34.8174 29.8273 35.1201 29.721 35.5079C29.6148 35.8953 29.7282 36.309 30.0179 36.5928L32.2565 38.7823L27.7457 43.1946C27.2977 43.6333 27.2977 44.3445 27.7457 44.7831C28.1941 45.2214 28.921 45.2214 29.3695 44.7831L34.6915 39.5763C35.14 39.1381 35.14 38.427 34.6915 37.9883L33.0476 36.38L44.2742 33.4373L41.2661 44.4195L39.6221 42.8112C39.4069 42.6007 39.1149 42.4827 38.8104 42.4827C38.506 42.4827 38.2136 42.6007 37.9983 42.8112L28.8376 51.7732C28.3892 52.2119 28.3892 52.923 28.8376 53.3617C29.0618 53.5811 29.3556 53.6903 29.6493 53.6903C29.943 53.6903 30.2367 53.5811 30.461 53.3617L38.81 45.1938L41.0482 47.3833C41.3383 47.6671 41.7612 47.7776 42.1571 47.6741C42.5536 47.5701 42.863 47.2675 42.9688 46.8801L47.0061 32.1397C47.1124 31.7523 46.9994 31.3386 46.7093 31.0548C46.4191 30.7709 45.9962 30.6599 45.6003 30.7639Z" fill="#CB950B"/>
<path d="M11.8672 65.1386C11.4192 64.6999 10.6922 64.6999 10.2438 65.1386L1.18399 74.0015C0.735546 74.4397 0.735546 75.1508 1.18399 75.5895C1.40821 75.8089 1.70193 75.9185 1.99566 75.9185C2.28939 75.9185 2.58356 75.8089 2.80734 75.5895L11.8672 66.7266C12.3156 66.2884 12.3156 65.5773 11.8672 65.1386Z" fill="black"/>
<path d="M3.73736 67.0557C4.03916 67.0557 4.33513 66.9368 4.54903 66.7266C4.76249 66.5178 4.88536 66.2292 4.88536 65.9326C4.88536 65.6374 4.76249 65.3478 4.54903 65.139C4.33513 64.9298 4.03916 64.8096 3.73736 64.8096C3.43421 64.8096 3.13914 64.9298 2.92568 65.139C2.71223 65.3478 2.58936 65.6374 2.58936 65.9326C2.58936 66.2292 2.71223 66.5178 2.92568 66.7266C3.13914 66.9368 3.43511 67.0557 3.73736 67.0557Z" fill="black"/>
<path d="M25.4948 46.4145L25.4849 46.4228C25.0127 46.8374 24.9737 47.5476 25.3975 48.0092C25.6239 48.2561 25.9374 48.382 26.2522 48.382C26.5253 48.382 26.7993 48.2873 27.0186 48.0943L27.0284 48.0859C27.5002 47.6714 27.5397 46.9616 27.1159 46.5001C26.6921 46.0381 25.9665 45.9999 25.4948 46.4145Z" fill="black"/>
</svg>
