<svg width="17" height="16" viewBox="0 0 17 16" fill="none" xmlns="http://www.w3.org/2000/svg">
<g clip-path="url(#clip0_6_8055)">
<path d="M8.44043 15.999C12.8587 15.999 16.4404 12.4173 16.4404 7.99902C16.4404 3.58075 12.8587 -0.000976562 8.44043 -0.000976562C4.02215 -0.000976562 0.44043 3.58075 0.44043 7.99902C0.44043 12.4173 4.02215 15.999 8.44043 15.999Z" fill="#F0F0F0"/>
<path d="M2.09422 3.12793C1.46581 3.94552 0.991971 4.88787 0.716064 5.91159H4.87788L2.09422 3.12793Z" fill="#0052B4"/>
<path d="M16.1649 5.91155C15.889 4.88787 15.4151 3.94552 14.7868 3.12793L12.0032 5.91155H16.1649Z" fill="#0052B4"/>
<path d="M0.716064 10.0859C0.992002 11.1096 1.46585 12.052 2.09422 12.8695L4.87778 10.0859H0.716064Z" fill="#0052B4"/>
<path d="M13.311 1.6526C12.4934 1.0242 11.5511 0.550352 10.5273 0.274414V4.4362L13.311 1.6526Z" fill="#0052B4"/>
<path d="M3.56982 14.3451C4.38742 14.9735 5.32976 15.4473 6.35345 15.7233V11.5615L3.56982 14.3451Z" fill="#0052B4"/>
<path d="M6.35342 0.274414C5.32973 0.550352 4.38739 1.0242 3.56982 1.65257L6.35342 4.43616V0.274414Z" fill="#0052B4"/>
<path d="M10.5273 15.7233C11.551 15.4473 12.4934 14.9735 13.3109 14.3451L10.5273 11.5615V15.7233Z" fill="#0052B4"/>
<path d="M12.0032 10.0859L14.7868 12.8696C15.4151 12.052 15.889 11.1096 16.1649 10.0859H12.0032Z" fill="#0052B4"/>
<path d="M16.3727 6.95555H9.48396H9.48393V0.0667422C9.14234 0.0222734 8.79409 -0.000976562 8.44043 -0.000976562C8.08671 -0.000976562 7.73852 0.0222734 7.39696 0.0667422V6.95549V6.95552H0.508148C0.46368 7.29712 0.44043 7.64537 0.44043 7.99902C0.44043 8.35274 0.46368 8.70093 0.508148 9.04249H7.3969H7.39693V15.9313C7.73852 15.9758 8.08671 15.999 8.44043 15.999C8.79409 15.999 9.14234 15.9758 9.4839 15.9313V9.04255V9.04252H16.3727C16.4172 8.70093 16.4404 8.35274 16.4404 7.99902C16.4404 7.64537 16.4172 7.29712 16.3727 6.95555Z" fill="#D80027"/>
<path d="M10.5273 10.086L14.0972 13.6558C14.2614 13.4917 14.418 13.3201 14.5675 13.1422L11.5112 10.0859H10.5273V10.086Z" fill="#D80027"/>
<path d="M6.3536 10.0859H6.35354L2.78369 13.6558C2.94782 13.82 3.11941 13.9766 3.29729 14.126L6.3536 11.0697V10.0859Z" fill="#D80027"/>
<path d="M6.3536 5.91176V5.9117L2.78373 2.3418C2.61954 2.50592 2.46291 2.67752 2.31348 2.85539L5.36982 5.91173H6.3536V5.91176Z" fill="#D80027"/>
<path d="M10.5273 5.91223L14.0972 2.34229C13.9331 2.1781 13.7615 2.02148 13.5837 1.87207L10.5273 4.92842V5.91223Z" fill="#D80027"/>
</g>
<defs>
<clipPath id="clip0_6_8055">
<rect width="16" height="16" fill="white" transform="translate(0.44043 -0.000976562)"/>
</clipPath>
</defs>
</svg>
