<svg width="1900" height="867" viewBox="0 0 1900 867" fill="none" xmlns="http://www.w3.org/2000/svg">
<path d="M-75.985 866.089C49.0251 862.093 116.993 700.778 169.396 645.091C197.423 615.264 183.611 593.877 164.591 580.5C147.606 568.497 126.585 563.385 105.849 565.598L53.7625 571.155C52.7797 571.26 51.7865 571.267 50.7723 571.077C45.5256 570.345 41.2877 566.026 40.7005 560.522L38.3725 538.705C38.1627 536.74 38.4654 534.918 39.0838 533.262C39.3157 532.641 39.5581 532.118 39.8883 531.486C41.7357 528.307 44.9761 526.073 48.9072 525.654L76.7193 522.686C70.2331 523.378 64.3599 518.637 63.6678 512.151L62.2835 499.179C61.906 495.641 63.1324 492.23 65.3586 489.806C67.2231 487.718 69.8595 486.344 72.8078 486.029L84.0112 484.834C84.0112 484.834 82.2361 426.28 90.0589 394.335C91.2263 389.44 92.2821 382.568 93.2017 374.419C95.1259 356.124 96.1509 331.265 96.0491 307.023C95.9101 271.256 93.1348 236.863 86.9128 226.991C74.6092 207.63 52.6457 190.89 52.6457 190.89C51.9158 190.57 35.5741 183.667 44.7291 171.657L44.9047 171.439C46.1337 169.917 47.8437 168.243 50.0345 166.419C50.0345 166.419 48.0489 156.195 55.0736 152.165L55.2597 152.046C56.2005 151.548 57.25 151.138 58.4189 150.914L68.443 149.844C68.443 149.844 56.1918 98.3724 37.5754 92.5067L35.562 73.6377L50.0086 72.0961C50.0086 72.0961 53.3197 68.6616 60.1478 64.6529C65.4769 61.5 73.1541 57.9972 83.021 55.4534L82.4127 49.7534L93.1248 48.6103L92.7263 44.8758L107.468 43.3028L107.866 47.0373L118.382 45.9153L119.074 52.4015C139.531 54.095 150.555 61.4666 150.555 61.4666L164.904 59.9355L166.917 78.8045C149.958 88.4664 148.843 141.364 148.843 141.364L158.867 140.294C170.088 140.19 170.433 153.671 170.433 153.671C192.989 164.782 173.044 178.142 173.044 178.142C173.044 178.142 155.108 199.14 147.166 220.661C139.844 240.527 161.354 338.72 175.956 376.82C177.186 379.969 178.364 382.626 179.402 384.901C193.79 414.476 204.41 472.086 204.41 472.086L215.712 470.88C222.198 470.188 228.071 474.928 228.763 481.414L230.147 494.387C230.839 500.873 226.099 506.746 219.613 507.438L247.326 504.481C253.813 503.789 259.686 508.53 260.378 515.016L262.706 536.833C263.398 543.319 258.658 549.193 252.171 549.885L229.47 552.307C229.47 552.307 212.257 554.939 215.89 537.753C226.022 489.261 419.15 425.019 421.843 340.345C422.106 332.564 423.346 323.685 423.813 314.093C425.016 290.905 425.2 263.751 423.936 240.727C422.672 217.702 420.048 198.7 415.646 191.914C403.342 172.552 381.379 155.812 381.379 155.812C381.379 155.812 362.693 148.363 374.702 135.155C375.766 133.948 377.125 132.709 378.768 131.341C378.768 131.341 376.74 120.724 384.277 116.838C385.12 116.351 386.082 116.049 387.25 115.825L397.275 114.756C397.275 114.756 397.275 114.756 397.264 114.657C396.567 111.849 384.511 63.14 366.407 57.4184L364.394 38.5494L359.153 16.4465L382.842 27.9335L394.335 12.6923L407.907 21.5812C409.065 21.2588 410.322 20.926 411.579 20.5931L409.711 20.7923L408.684 11.1613L444.456 7.34414L445.484 16.9752L443.617 17.1744C444.915 17.2347 446.214 17.2949 447.414 17.3656L459.001 5.79211L473.452 18.2648L494.184 2.0379L493.735 24.8472L495.749 43.7162C478.789 53.3781 477.675 106.276 477.675 106.276L487.699 105.206C498.92 105.102 499.265 118.583 499.265 118.583C521.82 129.694 501.876 143.054 501.876 143.054C501.876 143.054 483.939 164.052 475.998 185.573C468.289 206.474 492.368 313.835 506.937 346.969C507.336 347.921 507.834 348.861 508.223 349.714C522.611 379.29 533.231 436.899 533.231 436.899L544.434 435.704C550.921 435.011 556.794 439.752 557.486 446.238L558.87 459.211C559.562 465.697 554.822 471.57 548.335 472.262L576.148 469.295C582.634 468.602 588.507 473.343 589.199 479.829L591.527 501.646C592.219 508.133 587.479 514.006 580.992 514.698L382.573 535.871C376.087 536.563 370.214 531.822 369.522 525.336L367.204 503.617C366.91 500.865 367.61 498.107 369.071 495.963C370.95 493.079 374.103 490.953 377.837 490.555L405.551 487.598C399.065 488.29 393.192 483.549 392.499 477.063L391.115 464.09C390.717 460.356 392.119 456.728 394.64 454.272C396.437 452.49 398.888 451.234 401.639 450.941L412.941 449.735C412.941 449.735 412.647 439.528 412.808 425.198C412.808 425.198 412.152 407.874 432.94 398.698C453.729 389.522 704.152 359.223 695.349 295.356C694.576 289.972 692.918 284.682 691.85 279.33C689.213 265.795 687.351 252.078 686.732 238.825C685.808 218.051 687.761 198.163 694.275 180.968C699.475 167.293 707.539 155.3 719.367 145.987C714.615 136.853 718.287 118.172 718.488 117.256C722.236 126.299 733.891 136.784 733.891 136.784C735.116 136.156 736.439 135.518 737.773 134.978C737.773 134.978 731.848 119.508 739.755 95.8037C739.755 95.8037 746.455 121.329 771.943 135.705C771.943 135.705 805.367 142.476 811.932 146.248C818.497 150.02 836.111 167.92 845.662 172.666C855.115 177.422 920.553 211.291 920.553 211.291C920.553 211.291 929.988 217.739 926.99 226.905C926.305 228.867 919.775 242.187 915.013 247.863C913.872 249.277 912.787 250.287 911.913 250.48C907.553 251.542 881.055 250.99 881.055 250.99C881.055 250.99 873.621 253.97 865.641 259.294C859.423 263.436 840.76 275.765 820.16 271.801L819.855 271.734C814.773 270.686 809.499 268.764 804.362 265.336L803.405 264.742C805.046 266.157 850.027 305.787 867.989 331.602C868.098 331.69 868.108 331.788 868.228 331.974C871.395 336.506 873.724 340.631 874.691 344.106C878.542 356.915 881.477 387.215 855.587 402.601L868.756 401.196C875.242 400.504 881.115 405.244 881.807 411.731L883.192 424.703C883.884 431.189 879.143 437.062 872.657 437.755L900.371 434.797C906.857 434.105 912.73 438.846 913.422 445.332L915.75 467.149C916.442 473.636 911.702 479.509 905.215 480.201L706.895 501.363C700.408 502.055 694.535 497.314 693.843 490.828L691.515 469.011C691.221 466.259 691.921 463.501 693.382 461.357C695.261 458.473 698.413 456.347 702.148 455.949L729.862 452.992C723.376 453.684 717.502 448.943 716.81 442.457L715.426 429.485C715.185 427.224 715.642 424.989 716.524 423.006C718.231 419.444 721.724 416.786 725.95 416.335L739.611 414.877C739.232 414.122 725.173 386.699 711.607 348.984C711.607 348.984 709.206 326.479 729.617 321.22C750.028 315.961 1059.55 311.36 1048.46 369.497C1047.71 373.652 1047.56 377.842 1047.8 381.991L1037.78 383.061C1034.14 383.449 1031.08 385.465 1029.19 388.251C1027.64 390.504 1026.84 393.273 1027.16 396.221L1028.54 409.193C1029.23 415.68 1035.11 420.42 1041.59 419.728L1013.78 422.696C1010.44 423.052 1007.54 424.753 1005.63 427.343C1003.8 429.725 1002.92 432.701 1003.26 435.846L1005.58 457.663C1006.28 464.149 1012.15 468.89 1018.64 468.198L1217.06 447.025C1223.54 446.333 1228.28 440.46 1227.59 433.973L1225.25 412.058C1224.56 405.572 1218.69 400.831 1212.2 401.523L1184.39 404.491C1190.87 403.799 1195.62 397.926 1194.92 391.439L1193.54 378.467C1192.85 371.981 1186.97 367.24 1180.49 367.932L1170.46 369.002C1167.6 350.522 1154.98 333.779 1144.34 320.701C1136.11 310.645 1129.01 302.854 1128.55 298.53L1120.91 226.887C1120.57 223.742 1121.2 220.296 1122.22 216.808C1125.44 206.027 1133.15 194.47 1132.71 190.342L1130.6 170.589L1133.75 170.253C1136.8 169.928 1138.99 167.209 1138.67 164.162L1137.77 155.809C1137.45 152.762 1134.73 150.568 1131.68 150.893L1118.81 152.266L1149.8 115.761L1143.1 52.9631L1123.05 55.1023L1125.81 80.9489L1107.63 82.8889L1104.87 57.0424L1084.82 59.1816L1087.58 85.0282L1069.2 86.9892L1066.45 61.1426L1046.4 63.2819L1049.16 89.1285L1030.78 91.0895L1028.02 65.2429L1007.97 67.3822L1014.67 130.181L1052.67 159.324L1039.6 160.719C1038.13 160.876 1036.91 161.602 1036.02 162.591C1035.05 163.689 1034.52 165.237 1034.68 166.809L1035.57 175.163C1035.9 178.209 1038.62 180.404 1041.67 180.079L1044.91 179.733L1047.02 199.486C1047.6 204.99 1064.92 220.138 1066.28 232.816L1073.92 304.459C1074.13 306.425 1073.17 309.509 1071.48 313.267C1070.2 316.187 1068.38 319.562 1066.48 323.243C1066.48 323.243 1062.22 332.644 1075.24 338.212C1088.26 343.781 1354.96 266.718 1349.48 318.789C1347.73 335.873 1344.82 350.497 1344.82 350.497L1342.55 350.738C1338.62 351.158 1335.3 353.501 1333.45 356.68C1332.28 358.792 1331.65 361.245 1331.92 363.8L1333.31 376.773C1334 383.259 1339.87 387.999 1346.36 387.307L1318.55 390.275C1314.81 390.673 1311.66 392.799 1309.78 395.683C1308.33 397.925 1307.62 400.585 1307.91 403.337L1310.24 425.154C1310.93 431.64 1316.81 436.381 1323.29 435.689L1521.71 414.516C1528.2 413.824 1532.94 407.951 1532.25 401.465L1529.91 379.549C1529.22 373.063 1523.34 368.323 1516.86 369.015L1489.14 371.972C1495.63 371.28 1500.37 365.407 1499.68 358.92L1498.29 345.948C1497.6 339.462 1491.73 334.721 1485.24 335.413L1482.98 335.654C1482.98 335.654 1468.81 281.108 1441.09 270.946C1441.09 270.946 1431.71 183.087 1431.08 177.19C1431.05 176.895 1431.03 176.699 1431.1 176.394C1431.09 176.295 1431.17 176.088 1431.15 175.892C1431.13 175.793 1431.21 175.586 1431.2 175.488L1431.19 175.39L1431.18 175.292C1432.68 167.876 1443.67 150.799 1442.92 143.723L1441.44 129.866C1441.44 129.866 1453.37 122.431 1443.8 115.601C1443.8 115.601 1440.12 108.141 1433.15 107.096L1426.07 107.851L1425.59 103.33C1425.59 103.33 1438.37 95.5052 1437.16 80.4271C1435.96 65.4472 1425.82 49.6316 1407.32 42.0637C1407.32 42.0637 1392.55 38.6705 1388.73 28.94C1390.56 26.5577 1391.52 23.4731 1391.19 20.3282C1390.5 13.842 1384.62 9.1014 1378.14 9.79352C1374.6 10.171 1371.62 12.079 1369.72 14.7666L1369.55 14.9842C1368.1 17.2262 1367.39 19.8863 1367.7 22.8346C1368.05 26.0777 1369.64 28.8896 1372.02 30.7227C1370.35 41.1388 1356.61 47.4748 1356.61 47.4748C1340.13 58.776 1333.65 76.3638 1335.54 91.2703C1337.53 106.166 1351.69 111.216 1351.69 111.216L1352.17 115.737L1345.09 116.492C1344.04 116.902 1343.1 117.4 1342.27 117.985C1337.85 121.241 1336.47 126.954 1336.47 126.954C1335.75 127.726 1335.24 128.476 1334.82 129.217C1330.93 136.491 1341.78 140.402 1341.78 140.402L1343.26 154.259C1344.09 162.022 1361.26 178.578 1361.89 184.475L1367.5 237.052C1369.78 258.476 1371.88 278.132 1371.88 278.132C1369.65 279.563 1367.64 281.267 1365.77 283.257C1364.34 284.8 1362.93 286.442 1361.73 288.26C1361.73 288.26 1349.36 303.694 1372.8 310.039C1396.34 316.373 1421.22 355.763 1438.77 369.395C1456.34 383.126 1568.37 396.318 1586.6 365.946C1588.48 363.062 1591.63 360.936 1595.37 360.538L1623.18 357.57C1616.69 358.262 1610.82 353.521 1610.13 347.035L1608.74 334.063C1608.47 331.507 1609 328.967 1610.27 326.942C1612.12 323.763 1615.45 321.42 1619.38 321.001L1629.79 319.889C1635.74 301.066 1639.4 284.175 1641.39 269.253C1650.53 201.186 1625.26 172.175 1625.26 172.175L1614.55 173.318C1614.55 173.318 1615.04 164.817 1619.28 159.892C1620.77 158.043 1622.82 156.731 1625.47 156.448C1625.47 156.448 1626.75 151.64 1629.92 148.718C1631.19 147.588 1632.69 146.732 1634.56 146.533L1642.52 145.684C1623.62 137.165 1609.57 119.182 1607.21 97.0698C1605.43 80.3629 1610.61 64.6031 1620.45 52.5199C1630.12 40.6543 1644.35 32.4758 1660.76 30.7246C1693.88 27.1906 1723.57 51.1571 1727.11 84.2761C1729.47 106.388 1719.54 127.028 1702.86 139.245L1710.82 138.396C1717.5 137.682 1721.8 146.269 1721.8 146.269C1731.82 145.199 1736.03 160.454 1736.03 160.454L1725.32 161.597C1725.32 161.597 1721.07 169.306 1719.23 184.611C1719.23 184.611 1719.24 184.71 1719.25 184.808C1716.39 208.272 1719.28 249.411 1752.17 307.03L1762.49 305.929C1768.97 305.237 1774.85 309.977 1775.54 316.463L1776.92 329.436C1777.62 335.922 1772.88 341.795 1766.39 342.487L1794.2 339.52C1800.69 338.827 1806.56 343.568 1807.25 350.054L1809.58 371.872C1810.27 378.358 1805.53 384.231 1799.05 384.923L1699.79 395.515C1699.79 395.515 1672.09 399.563 1677.35 380.813C1682.6 362.063 1775.44 235.467 1943.52 228.962" stroke="#D8DEE4" stroke-miterlimit="10"/>
</svg>
