<svg width="232" height="52" viewBox="0 0 232 52" fill="none" xmlns="http://www.w3.org/2000/svg">
<path d="M116.722 28.6849C115.198 28.6849 114.028 28.3069 113.212 27.5509C112.408 26.7949 112.006 25.6909 112.006 24.2389C112.006 22.7389 112.438 21.6229 113.302 20.8909C114.178 20.1589 115.342 19.7929 116.794 19.7929C117.394 19.7929 117.91 19.8349 118.342 19.9189C118.774 20.0029 119.194 20.1409 119.602 20.3329V22.0789C119.302 21.9349 118.954 21.8209 118.558 21.7369C118.162 21.6529 117.736 21.6109 117.28 21.6109C116.368 21.6109 115.672 21.8029 115.192 22.1869C114.712 22.5589 114.472 23.2429 114.472 24.2389C114.472 25.1509 114.688 25.8169 115.12 26.2369C115.564 26.6569 116.278 26.8669 117.262 26.8669C117.682 26.8669 118.09 26.8249 118.486 26.7409C118.894 26.6569 119.272 26.5309 119.62 26.3629V28.1629C118.816 28.5109 117.85 28.6849 116.722 28.6849ZM120.795 28.5049V16.3729H123.225V20.6929C123.573 20.4289 123.999 20.2129 124.503 20.0449C125.007 19.8769 125.553 19.7929 126.141 19.7929C127.269 19.7929 128.091 20.0569 128.607 20.5849C129.123 21.1129 129.381 21.9289 129.381 23.0329V28.5049H126.951V23.1589C126.951 22.5829 126.831 22.1749 126.591 21.9349C126.363 21.6949 125.931 21.5749 125.295 21.5749C124.923 21.5749 124.545 21.6589 124.161 21.8269C123.789 21.9949 123.477 22.2049 123.225 22.4569V28.5049H120.795ZM135.165 28.6849C133.689 28.6849 132.519 28.3189 131.655 27.5869C130.791 26.8429 130.359 25.7209 130.359 24.2209C130.359 22.8649 130.719 21.7909 131.439 20.9989C132.171 20.1949 133.257 19.7929 134.697 19.7929C136.017 19.7929 137.025 20.1409 137.721 20.8369C138.429 21.5209 138.783 22.4209 138.783 23.5369V25.0849H132.609C132.741 25.7689 133.053 26.2369 133.545 26.4889C134.049 26.7409 134.757 26.8669 135.669 26.8669C136.125 26.8669 136.587 26.8249 137.055 26.7409C137.535 26.6569 137.943 26.5489 138.279 26.4169V28.1449C137.883 28.3249 137.421 28.4569 136.893 28.5409C136.365 28.6369 135.789 28.6849 135.165 28.6849ZM132.609 23.5909H136.659V23.1229C136.659 22.6309 136.515 22.2469 136.227 21.9709C135.939 21.6829 135.453 21.5389 134.769 21.5389C133.965 21.5389 133.401 21.7009 133.077 22.0249C132.765 22.3489 132.609 22.8709 132.609 23.5909ZM143.033 28.6849C142.397 28.6849 141.791 28.6369 141.215 28.5409C140.639 28.4569 140.177 28.3489 139.829 28.2169V26.2009C140.249 26.3689 140.723 26.5009 141.251 26.5969C141.779 26.6809 142.265 26.7229 142.709 26.7229C143.309 26.7229 143.729 26.6869 143.969 26.6149C144.221 26.5429 144.347 26.3809 144.347 26.1289C144.347 25.8409 144.155 25.6309 143.771 25.4989C143.399 25.3669 142.841 25.1809 142.097 24.9409C141.317 24.6769 140.717 24.3589 140.297 23.9869C139.877 23.6149 139.667 23.0629 139.667 22.3309C139.667 21.5149 139.961 20.8909 140.549 20.4589C141.149 20.0149 142.109 19.7929 143.429 19.7929C143.957 19.7929 144.455 19.8349 144.923 19.9189C145.391 19.9909 145.787 20.0809 146.111 20.1889V22.1869C145.787 22.0309 145.415 21.9169 144.995 21.8449C144.575 21.7609 144.185 21.7189 143.825 21.7189C143.309 21.7189 142.895 21.7549 142.583 21.8269C142.283 21.8989 142.133 22.0549 142.133 22.2949C142.133 22.5589 142.295 22.7449 142.619 22.8529C142.955 22.9609 143.471 23.1229 144.167 23.3389C144.851 23.5429 145.385 23.7649 145.769 24.0049C146.153 24.2449 146.423 24.5329 146.579 24.8689C146.735 25.1929 146.813 25.6009 146.813 26.0929C146.813 27.8209 145.553 28.6849 143.033 28.6849ZM150.688 28.6849C150.052 28.6849 149.446 28.6369 148.87 28.5409C148.294 28.4569 147.832 28.3489 147.484 28.2169V26.2009C147.904 26.3689 148.378 26.5009 148.906 26.5969C149.434 26.6809 149.92 26.7229 150.364 26.7229C150.964 26.7229 151.384 26.6869 151.624 26.6149C151.876 26.5429 152.002 26.3809 152.002 26.1289C152.002 25.8409 151.81 25.6309 151.426 25.4989C151.054 25.3669 150.496 25.1809 149.752 24.9409C148.972 24.6769 148.372 24.3589 147.952 23.9869C147.532 23.6149 147.322 23.0629 147.322 22.3309C147.322 21.5149 147.616 20.8909 148.204 20.4589C148.804 20.0149 149.764 19.7929 151.084 19.7929C151.612 19.7929 152.11 19.8349 152.578 19.9189C153.046 19.9909 153.442 20.0809 153.766 20.1889V22.1869C153.442 22.0309 153.07 21.9169 152.65 21.8449C152.23 21.7609 151.84 21.7189 151.48 21.7189C150.964 21.7189 150.55 21.7549 150.238 21.8269C149.938 21.8989 149.788 22.0549 149.788 22.2949C149.788 22.5589 149.95 22.7449 150.274 22.8529C150.61 22.9609 151.126 23.1229 151.822 23.3389C152.506 23.5429 153.04 23.7649 153.424 24.0049C153.808 24.2449 154.078 24.5329 154.234 24.8689C154.39 25.1929 154.468 25.6009 154.468 26.0929C154.468 27.8209 153.208 28.6849 150.688 28.6849ZM164.412 28.6849C163.812 28.6849 163.29 28.6069 162.846 28.4509C162.402 28.2829 161.994 28.0369 161.622 27.7129L161.496 28.5049H159.39V16.3729H161.82V20.4409C162.168 20.2249 162.558 20.0629 162.99 19.9549C163.422 19.8469 163.872 19.7929 164.34 19.7929C165.564 19.7929 166.53 20.1409 167.238 20.8369C167.958 21.5209 168.318 22.6309 168.318 24.1669C168.318 25.7029 167.964 26.8429 167.256 27.5869C166.56 28.3189 165.612 28.6849 164.412 28.6849ZM163.728 26.9029C164.508 26.9029 165.054 26.6749 165.366 26.2189C165.69 25.7629 165.852 25.0789 165.852 24.1669C165.852 23.2189 165.678 22.5529 165.33 22.1689C164.994 21.7729 164.454 21.5749 163.71 21.5749C163.338 21.5749 162.984 21.6289 162.648 21.7369C162.324 21.8449 162.048 22.0009 161.82 22.2049V26.1289C162.06 26.3809 162.342 26.5729 162.666 26.7049C163.002 26.8369 163.356 26.9029 163.728 26.9029ZM172.797 28.6849C171.777 28.6849 170.979 28.4029 170.403 27.8389C169.839 27.2629 169.557 26.4229 169.557 25.3189V19.9729H171.987V25.2649C171.987 25.8409 172.125 26.2609 172.401 26.5249C172.677 26.7769 173.091 26.9029 173.643 26.9029C174.063 26.9029 174.447 26.8189 174.795 26.6509C175.155 26.4829 175.461 26.2729 175.713 26.0209V19.9729H178.143V28.5049H175.893L175.803 27.6949C175.443 27.9829 175.017 28.2229 174.525 28.4149C174.045 28.5949 173.469 28.6849 172.797 28.6849ZM182.858 28.6849C182.222 28.6849 181.616 28.6369 181.04 28.5409C180.464 28.4569 180.002 28.3489 179.654 28.2169V26.2009C180.074 26.3689 180.548 26.5009 181.076 26.5969C181.604 26.6809 182.09 26.7229 182.534 26.7229C183.134 26.7229 183.554 26.6869 183.794 26.6149C184.046 26.5429 184.172 26.3809 184.172 26.1289C184.172 25.8409 183.98 25.6309 183.596 25.4989C183.224 25.3669 182.666 25.1809 181.922 24.9409C181.142 24.6769 180.542 24.3589 180.122 23.9869C179.702 23.6149 179.492 23.0629 179.492 22.3309C179.492 21.5149 179.786 20.8909 180.374 20.4589C180.974 20.0149 181.934 19.7929 183.254 19.7929C183.782 19.7929 184.28 19.8349 184.748 19.9189C185.216 19.9909 185.612 20.0809 185.936 20.1889V22.1869C185.612 22.0309 185.24 21.9169 184.82 21.8449C184.4 21.7609 184.01 21.7189 183.65 21.7189C183.134 21.7189 182.72 21.7549 182.408 21.8269C182.108 21.8989 181.958 22.0549 181.958 22.2949C181.958 22.5589 182.12 22.7449 182.444 22.8529C182.78 22.9609 183.296 23.1229 183.992 23.3389C184.676 23.5429 185.21 23.7649 185.594 24.0049C185.978 24.2449 186.248 24.5329 186.404 24.8689C186.56 25.1929 186.638 25.6009 186.638 26.0929C186.638 27.8209 185.378 28.6849 182.858 28.6849ZM188.558 18.4069V16.4989H191.204V18.4069H188.558ZM188.756 28.5049V21.7729H187.478L187.694 19.9729H191.186V28.5049H188.756ZM192.895 28.5049V19.9729H195.145L195.235 20.7829C195.583 20.5189 196.021 20.2909 196.549 20.0989C197.089 19.8949 197.653 19.7929 198.241 19.7929C199.369 19.7929 200.191 20.0569 200.707 20.5849C201.223 21.1129 201.481 21.9289 201.481 23.0329V28.5049H199.051V23.1589C199.051 22.5829 198.931 22.1749 198.691 21.9349C198.463 21.6949 198.031 21.5749 197.395 21.5749C197.023 21.5749 196.645 21.6589 196.261 21.8269C195.889 21.9949 195.577 22.2049 195.325 22.4569V28.5049H192.895ZM207.264 28.6849C205.788 28.6849 204.618 28.3189 203.754 27.5869C202.89 26.8429 202.458 25.7209 202.458 24.2209C202.458 22.8649 202.818 21.7909 203.538 20.9989C204.27 20.1949 205.356 19.7929 206.796 19.7929C208.116 19.7929 209.124 20.1409 209.82 20.8369C210.528 21.5209 210.882 22.4209 210.882 23.5369V25.0849H204.708C204.84 25.7689 205.152 26.2369 205.644 26.4889C206.148 26.7409 206.856 26.8669 207.768 26.8669C208.224 26.8669 208.686 26.8249 209.154 26.7409C209.634 26.6569 210.042 26.5489 210.378 26.4169V28.1449C209.982 28.3249 209.52 28.4569 208.992 28.5409C208.464 28.6369 207.888 28.6849 207.264 28.6849ZM204.708 23.5909H208.758V23.1229C208.758 22.6309 208.614 22.2469 208.326 21.9709C208.038 21.6829 207.552 21.5389 206.868 21.5389C206.064 21.5389 205.5 21.7009 205.176 22.0249C204.864 22.3489 204.708 22.8709 204.708 23.5909ZM215.132 28.6849C214.496 28.6849 213.89 28.6369 213.314 28.5409C212.738 28.4569 212.276 28.3489 211.928 28.2169V26.2009C212.348 26.3689 212.822 26.5009 213.35 26.5969C213.878 26.6809 214.364 26.7229 214.808 26.7229C215.408 26.7229 215.828 26.6869 216.068 26.6149C216.32 26.5429 216.446 26.3809 216.446 26.1289C216.446 25.8409 216.254 25.6309 215.87 25.4989C215.498 25.3669 214.94 25.1809 214.196 24.9409C213.416 24.6769 212.816 24.3589 212.396 23.9869C211.976 23.6149 211.766 23.0629 211.766 22.3309C211.766 21.5149 212.06 20.8909 212.648 20.4589C213.248 20.0149 214.208 19.7929 215.528 19.7929C216.056 19.7929 216.554 19.8349 217.022 19.9189C217.49 19.9909 217.886 20.0809 218.21 20.1889V22.1869C217.886 22.0309 217.514 21.9169 217.094 21.8449C216.674 21.7609 216.284 21.7189 215.924 21.7189C215.408 21.7189 214.994 21.7549 214.682 21.8269C214.382 21.8989 214.232 22.0549 214.232 22.2949C214.232 22.5589 214.394 22.7449 214.718 22.8529C215.054 22.9609 215.57 23.1229 216.266 23.3389C216.95 23.5429 217.484 23.7649 217.868 24.0049C218.252 24.2449 218.522 24.5329 218.678 24.8689C218.834 25.1929 218.912 25.6009 218.912 26.0929C218.912 27.8209 217.652 28.6849 215.132 28.6849ZM222.788 28.6849C222.152 28.6849 221.546 28.6369 220.97 28.5409C220.394 28.4569 219.932 28.3489 219.584 28.2169V26.2009C220.004 26.3689 220.478 26.5009 221.006 26.5969C221.534 26.6809 222.02 26.7229 222.464 26.7229C223.064 26.7229 223.484 26.6869 223.724 26.6149C223.976 26.5429 224.102 26.3809 224.102 26.1289C224.102 25.8409 223.91 25.6309 223.526 25.4989C223.154 25.3669 222.596 25.1809 221.852 24.9409C221.072 24.6769 220.472 24.3589 220.052 23.9869C219.632 23.6149 219.422 23.0629 219.422 22.3309C219.422 21.5149 219.716 20.8909 220.304 20.4589C220.904 20.0149 221.864 19.7929 223.184 19.7929C223.712 19.7929 224.21 19.8349 224.678 19.9189C225.146 19.9909 225.542 20.0809 225.866 20.1889V22.1869C225.542 22.0309 225.17 21.9169 224.75 21.8449C224.33 21.7609 223.94 21.7189 223.58 21.7189C223.064 21.7189 222.65 21.7549 222.338 21.8269C222.038 21.8989 221.888 22.0549 221.888 22.2949C221.888 22.5589 222.05 22.7449 222.374 22.8529C222.71 22.9609 223.226 23.1229 223.922 23.3389C224.606 23.5429 225.14 23.7649 225.524 24.0049C225.908 24.2449 226.178 24.5329 226.334 24.8689C226.49 25.1929 226.568 25.6009 226.568 26.0929C226.568 27.8209 225.308 28.6849 222.788 28.6849ZM116.722 42.6849C115.198 42.6849 114.028 42.3069 113.212 41.5509C112.408 40.7949 112.006 39.6909 112.006 38.2389C112.006 36.7389 112.438 35.6229 113.302 34.8909C114.178 34.1589 115.342 33.7929 116.794 33.7929C117.394 33.7929 117.91 33.8349 118.342 33.9189C118.774 34.0029 119.194 34.1409 119.602 34.3329V36.0789C119.302 35.9349 118.954 35.8209 118.558 35.7369C118.162 35.6529 117.736 35.6109 117.28 35.6109C116.368 35.6109 115.672 35.8029 115.192 36.1869C114.712 36.5589 114.472 37.2429 114.472 38.2389C114.472 39.1509 114.688 39.8169 115.12 40.2369C115.564 40.6569 116.278 40.8669 117.262 40.8669C117.682 40.8669 118.09 40.8249 118.486 40.7409C118.894 40.6569 119.272 40.5309 119.62 40.3629V42.1629C118.816 42.5109 117.85 42.6849 116.722 42.6849ZM125.061 42.6849C123.465 42.6849 122.295 42.3009 121.551 41.5329C120.807 40.7529 120.435 39.6549 120.435 38.2389C120.435 36.8229 120.807 35.7309 121.551 34.9629C122.307 34.1829 123.477 33.7929 125.061 33.7929C126.657 33.7929 127.827 34.1829 128.571 34.9629C129.327 35.7309 129.705 36.8229 129.705 38.2389C129.705 39.6549 129.333 40.7529 128.589 41.5329C127.845 42.3009 126.669 42.6849 125.061 42.6849ZM125.061 40.6149C125.841 40.6149 126.399 40.4409 126.735 40.0929C127.071 39.7329 127.239 39.1149 127.239 38.2389C127.239 37.3629 127.071 36.7509 126.735 36.4029C126.399 36.0429 125.841 35.8629 125.061 35.8629C124.293 35.8629 123.741 36.0429 123.405 36.4029C123.069 36.7509 122.901 37.3629 122.901 38.2389C122.901 39.1149 123.069 39.7329 123.405 40.0929C123.741 40.4409 124.293 40.6149 125.061 40.6149ZM131.035 42.5049V33.9729H133.285L133.375 34.7829C133.723 34.5189 134.161 34.2909 134.689 34.0989C135.229 33.8949 135.793 33.7929 136.381 33.7929C137.509 33.7929 138.331 34.0569 138.847 34.5849C139.363 35.1129 139.621 35.9289 139.621 37.0329V42.5049H137.191V37.1589C137.191 36.5829 137.071 36.1749 136.831 35.9349C136.603 35.6949 136.171 35.5749 135.535 35.5749C135.163 35.5749 134.785 35.6589 134.401 35.8269C134.029 35.9949 133.717 36.2049 133.465 36.4569V42.5049H131.035ZM144.245 42.6849C143.609 42.6849 143.003 42.6369 142.427 42.5409C141.851 42.4569 141.389 42.3489 141.041 42.2169V40.2009C141.461 40.3689 141.935 40.5009 142.463 40.5969C142.991 40.6809 143.477 40.7229 143.921 40.7229C144.521 40.7229 144.941 40.6869 145.181 40.6149C145.433 40.5429 145.559 40.3809 145.559 40.1289C145.559 39.8409 145.367 39.6309 144.983 39.4989C144.611 39.3669 144.053 39.1809 143.309 38.9409C142.529 38.6769 141.929 38.3589 141.509 37.9869C141.089 37.6149 140.879 37.0629 140.879 36.3309C140.879 35.5149 141.173 34.8909 141.761 34.4589C142.361 34.0149 143.321 33.7929 144.641 33.7929C145.169 33.7929 145.667 33.8349 146.135 33.9189C146.603 33.9909 146.999 34.0809 147.323 34.1889V36.1869C146.999 36.0309 146.627 35.9169 146.207 35.8449C145.787 35.7609 145.397 35.7189 145.037 35.7189C144.521 35.7189 144.107 35.7549 143.795 35.8269C143.495 35.8989 143.345 36.0549 143.345 36.2949C143.345 36.5589 143.507 36.7449 143.831 36.8529C144.167 36.9609 144.683 37.1229 145.379 37.3389C146.063 37.5429 146.597 37.7649 146.981 38.0049C147.365 38.2449 147.635 38.5329 147.791 38.8689C147.947 39.1929 148.025 39.6009 148.025 40.0929C148.025 41.8209 146.765 42.6849 144.245 42.6849ZM152.502 42.6849C151.482 42.6849 150.684 42.4029 150.108 41.8389C149.544 41.2629 149.262 40.4229 149.262 39.3189V33.9729H151.692V39.2649C151.692 39.8409 151.83 40.2609 152.106 40.5249C152.382 40.7769 152.796 40.9029 153.348 40.9029C153.768 40.9029 154.152 40.8189 154.5 40.6509C154.86 40.4829 155.166 40.2729 155.418 40.0209V33.9729H157.848V42.5049H155.598L155.508 41.6949C155.148 41.9829 154.722 42.2229 154.23 42.4149C153.75 42.5949 153.174 42.6849 152.502 42.6849ZM161.933 42.6849C161.105 42.6849 160.499 42.4929 160.115 42.1089C159.743 41.7249 159.557 41.1129 159.557 40.2729V30.3729H161.987V40.0749C161.987 40.3749 162.047 40.5849 162.167 40.7049C162.287 40.8129 162.461 40.8669 162.689 40.8669C163.001 40.8669 163.283 40.8249 163.535 40.7409V42.4149C163.079 42.5949 162.545 42.6849 161.933 42.6849ZM167.485 42.6849C166.501 42.6849 165.769 42.4269 165.289 41.9109C164.821 41.3949 164.587 40.6929 164.587 39.8049V35.8449H163.381V33.9729H164.587V32.1369L167.017 31.4169V33.9729H169.177L169.033 35.8449H167.017V39.6429C167.017 40.1109 167.125 40.4349 167.341 40.6149C167.557 40.7829 167.893 40.8669 168.349 40.8669C168.685 40.8669 169.033 40.8069 169.393 40.6869V42.3609C169.129 42.4689 168.841 42.5469 168.529 42.5949C168.217 42.6549 167.869 42.6849 167.485 42.6849ZM170.874 32.4069V30.4989H173.52V32.4069H170.874ZM171.072 42.5049V35.7729H169.794L170.01 33.9729H173.502V42.5049H171.072ZM175.211 42.5049V33.9729H177.461L177.551 34.7829C177.899 34.5189 178.337 34.2909 178.865 34.0989C179.405 33.8949 179.969 33.7929 180.557 33.7929C181.685 33.7929 182.507 34.0569 183.023 34.5849C183.539 35.1129 183.797 35.9289 183.797 37.0329V42.5049H181.367V37.1589C181.367 36.5829 181.247 36.1749 181.007 35.9349C180.779 35.6949 180.347 35.5749 179.711 35.5749C179.339 35.5749 178.961 35.6589 178.577 35.8269C178.205 35.9949 177.893 36.2049 177.641 36.4569V42.5049H175.211ZM189.015 45.6729C188.379 45.6729 187.725 45.6309 187.053 45.5469C186.393 45.4629 185.835 45.3429 185.379 45.1869V43.3689C185.859 43.5249 186.423 43.6449 187.071 43.7289C187.719 43.8249 188.325 43.8729 188.889 43.8729C189.717 43.8729 190.317 43.8249 190.689 43.7289C191.061 43.6449 191.247 43.4889 191.247 43.2609C191.247 43.0689 191.163 42.9369 190.995 42.8649C190.839 42.7929 190.503 42.7569 189.987 42.7569H187.665C186.141 42.7569 185.379 42.1929 185.379 41.0649C185.379 40.7169 185.475 40.3989 185.667 40.1109C185.859 39.8229 186.165 39.5949 186.585 39.4269C185.613 38.9349 185.127 38.1069 185.127 36.9429C185.127 35.8389 185.469 35.0409 186.153 34.5489C186.837 34.0449 187.851 33.7929 189.195 33.7929C189.471 33.7929 189.771 33.8169 190.095 33.8649C190.431 33.9009 190.683 33.9369 190.851 33.9729H194.055L194.001 35.5029H192.651C193.023 35.8509 193.209 36.3369 193.209 36.9609C193.209 37.8369 192.933 38.5389 192.381 39.0669C191.829 39.5829 191.013 39.8409 189.933 39.8409C189.741 39.8409 189.555 39.8349 189.375 39.8229C189.207 39.7989 189.033 39.7749 188.853 39.7509C188.493 39.7989 188.187 39.8829 187.935 40.0029C187.695 40.1229 187.575 40.2849 187.575 40.4889C187.575 40.7649 187.821 40.9029 188.313 40.9029H190.725C191.589 40.9029 192.255 41.1009 192.723 41.4969C193.191 41.8809 193.425 42.4449 193.425 43.1889C193.425 44.0289 193.047 44.6529 192.291 45.0609C191.535 45.4689 190.443 45.6729 189.015 45.6729ZM189.213 38.4729C189.933 38.4729 190.431 38.3529 190.707 38.1129C190.995 37.8609 191.139 37.4409 191.139 36.8529C191.139 36.2649 190.995 35.8389 190.707 35.5749C190.431 35.3109 189.933 35.1789 189.213 35.1789C188.529 35.1789 188.037 35.3109 187.737 35.5749C187.437 35.8269 187.287 36.2529 187.287 36.8529C187.287 37.4049 187.425 37.8129 187.701 38.0769C187.989 38.3409 188.493 38.4729 189.213 38.4729Z" fill="black"/>
<rect x="16.3452" y="3.14453" width="16" height="16" fill="black"/>
<path d="M7.98433 15.6649C6.11767 15.6649 4.69367 15.2062 3.71233 14.2889C2.731 13.3715 2.24033 12.0755 2.24033 10.4009C2.24033 8.67288 2.72033 7.35022 3.68033 6.43288C4.64033 5.50488 6.06967 5.04088 7.96833 5.04088C8.60833 5.04088 9.179 5.08888 9.68033 5.18488C10.1817 5.28088 10.6617 5.41422 11.1203 5.58488V8.20888C10.203 7.80355 9.22167 7.60088 8.17633 7.60088C7.20567 7.60088 6.48567 7.82488 6.01633 8.27288C5.547 8.71022 5.31233 9.41955 5.31233 10.4009C5.31233 11.3609 5.55767 12.0542 6.04833 12.4809C6.54967 12.8969 7.26967 13.1049 8.20833 13.1049C8.72033 13.1049 9.21633 13.0569 9.69633 12.9609C10.187 12.8649 10.6723 12.7155 11.1523 12.5129V15.1529C10.6937 15.3129 10.2083 15.4355 9.69633 15.5209C9.195 15.6169 8.62433 15.6649 7.98433 15.6649Z" fill="black"/>
<rect x="0.345215" y="19.1445" width="16" height="16" fill="black"/>
<path d="M21.2778 21.083H24.8325C26.4523 21.083 27.6268 21.3148 28.356 21.7783C29.0903 22.2367 29.4575 22.9684 29.4575 23.9736C29.4575 24.6559 29.2961 25.2158 28.9731 25.6533C28.6554 26.0908 28.231 26.3538 27.6997 26.4424V26.5205C28.4237 26.682 28.9445 26.984 29.2622 27.4268C29.5851 27.8695 29.7466 28.458 29.7466 29.1924C29.7466 30.234 29.369 31.0465 28.6138 31.6299C27.8638 32.2132 26.8429 32.5049 25.5513 32.5049H21.2778V21.083ZM23.6997 25.6064H25.106C25.7622 25.6064 26.2362 25.5049 26.5278 25.3018C26.8247 25.0986 26.9731 24.7627 26.9731 24.2939C26.9731 23.8564 26.8117 23.5439 26.4888 23.3564C26.1711 23.1637 25.6659 23.0674 24.9731 23.0674H23.6997V25.6064ZM23.6997 27.5283V30.5049H25.2778C25.9445 30.5049 26.4367 30.3773 26.7544 30.1221C27.0721 29.8669 27.231 29.4762 27.231 28.9502C27.231 28.0023 26.5539 27.5283 25.1997 27.5283H23.6997Z" fill="black"/>
<rect x="16.3452" y="35.1445" width="16" height="16" fill="black"/>
<path d="M7.98433 48.6649C6.11767 48.6649 4.69367 48.2062 3.71233 47.2889C2.731 46.3715 2.24033 45.0755 2.24033 43.4009C2.24033 41.6729 2.72033 40.3502 3.68033 39.4329C4.64033 38.5049 6.06967 38.0409 7.96833 38.0409C8.60833 38.0409 9.179 38.0889 9.68033 38.1849C10.1817 38.2809 10.6617 38.4142 11.1203 38.5849V41.2089C10.203 40.8035 9.22167 40.6009 8.17633 40.6009C7.20567 40.6009 6.48567 40.8249 6.01633 41.2729C5.547 41.7102 5.31233 42.4195 5.31233 43.4009C5.31233 44.3609 5.55767 45.0542 6.04833 45.4809C6.54967 45.8969 7.26967 46.1049 8.20833 46.1049C8.72033 46.1049 9.21633 46.0569 9.69633 45.9609C10.187 45.8649 10.6723 45.7155 11.1523 45.5129V48.1529C10.6937 48.3129 10.2083 48.4355 9.69633 48.5209C9.195 48.6169 8.62433 48.6649 7.98433 48.6649Z" fill="black"/>
<path d="M48.9553 49.3794C46.7268 49.3794 45.576 49.3689 44.8645 49.348C44.0066 49.3166 43.3894 49.2957 43.1487 48.7203C43.086 48.5633 42.9709 48.1553 43.3789 47.7368C44.2473 46.8475 44.8855 45.7594 45.0947 44.8387C45.3144 43.8657 46.1305 43.1125 47.1663 42.9032V42.809H47.4801C47.6266 41.9721 48.1706 41.2606 48.9135 40.9677C49.7295 40.6538 49.9597 40.2353 49.9074 39.9737C49.876 39.8168 49.7295 39.639 49.468 39.639C49.039 39.639 48.6728 39.3983 48.4845 39.0007C48.1497 38.2788 48.5054 37.2012 49.039 36.563C50.9432 34.3241 52.0626 32.3362 52.0522 31.2272C52.0417 30.8401 51.9789 30.3589 51.8743 29.8567C51.7592 29.3335 51.3512 28.9674 50.8909 28.9674C50.305 28.9674 49.8342 28.4547 49.8342 27.827V26.2681H51.1315C50.3677 25.2428 50.0539 23.9245 50.284 22.554C50.6607 20.3882 52.3137 18.8294 54.5004 18.5783C54.6887 18.5573 54.8665 18.5469 55.0549 18.5469C57.7228 18.5469 59.8989 20.723 59.8989 23.3909C59.8989 24.4372 59.5537 25.4416 58.9469 26.2576H60.2756V27.8165C60.2756 28.4442 59.8048 28.9569 59.2189 28.9569C58.7585 28.9569 58.3505 29.3231 58.2459 29.8357C58.1308 30.3379 58.068 30.8297 58.068 31.2168C58.0576 32.3153 59.177 34.3136 61.0812 36.5421C61.6148 37.1594 61.9809 38.2265 61.6461 38.9694C61.4578 39.3669 61.0916 39.6076 60.6522 39.6076C60.4953 39.6076 60.3279 39.754 60.286 39.9319C60.2128 40.2353 60.5057 40.5701 61.0603 40.8421C61.0707 40.8526 61.0916 40.863 61.1126 40.863C62.0228 41.2711 62.5459 41.9093 62.6819 42.7672H63.0272V42.8718C64.042 43.0915 64.8476 43.8448 65.0569 44.7969C65.1824 45.3723 65.4858 46.0314 65.9148 46.6592C66.2705 47.1718 66.5111 47.4229 66.6471 47.5694C66.8145 47.7473 67.2226 48.1658 66.9505 48.7412C66.7936 49.0969 66.4274 49.3271 65.9985 49.3271C60.7568 49.3271 56.6556 49.3375 53.6634 49.3375C51.7488 49.3794 50.2003 49.3794 48.9553 49.3794Z" fill="white"/>
<path d="M67.5783 47.5175C67.4632 47.3187 67.3272 47.1827 67.2121 47.0676C67.0761 46.9316 66.8773 46.7118 66.553 46.2515C66.1868 45.7075 65.9148 45.132 65.8102 44.6612C65.5695 43.615 64.8058 42.7571 63.8014 42.3386V42.0247H63.2678C63.1109 41.6272 62.8807 41.261 62.5773 40.9576C62.1797 40.5495 61.7508 40.3403 61.4997 40.2252C61.8554 40.0369 62.1588 39.7335 62.3367 39.3359C62.8179 38.2897 62.368 36.8982 61.6671 36.0717C59.5641 33.6025 58.8318 31.939 58.8422 31.2694C58.8422 30.9346 58.905 30.4952 58.9992 30.0453C59.0306 29.8779 59.1352 29.7733 59.2084 29.7733C60.2233 29.7733 61.0498 28.9154 61.0498 27.8483V27.074V25.5047H60.2756C60.5371 24.8456 60.6731 24.1341 60.6731 23.4227C60.6731 20.3154 58.1517 17.7939 55.0444 17.7939C54.8352 17.7939 54.6154 17.8044 54.4062 17.8253C53.0984 17.9718 51.9371 18.5263 51.0583 19.4156C50.2422 20.2317 49.7086 21.2779 49.5098 22.4497C49.332 23.4959 49.4366 24.5422 49.8132 25.5047H49.0495V27.074V27.8483C49.0495 28.905 49.876 29.7733 50.8909 29.7733C50.9641 29.7733 51.0687 29.8675 51.1106 30.0453C51.2047 30.4848 51.2675 30.9242 51.2675 31.259C51.278 31.939 50.5456 33.6025 48.4427 36.0717C47.7417 36.8982 47.2813 38.2897 47.7731 39.3464C47.9614 39.7439 48.2648 40.0578 48.6415 40.2461H48.631C47.8359 40.5495 47.2081 41.2191 46.8942 42.0247H46.3816V42.3281C45.3563 42.7362 44.5716 43.6045 44.331 44.6717C44.1531 45.4668 43.5881 46.4084 42.8139 47.2036C42.0606 47.9778 42.3222 48.8043 42.4268 49.0345C42.5942 49.4321 42.9813 49.9342 43.8811 50.0703C44.1113 50.1016 44.4042 50.1226 44.8436 50.1435C45.5655 50.1749 46.7268 50.1749 48.9658 50.1749C50.2213 50.1749 51.7488 50.1749 53.6738 50.1644C56.6661 50.154 60.7673 50.154 66.0089 50.154C66.7413 50.154 67.3795 49.7564 67.6725 49.1077C67.9026 48.5846 67.8712 48.0092 67.5783 47.5175ZM66.2391 48.4486C66.2286 48.48 66.1659 48.5741 65.9985 48.5741C57.5135 48.5741 52.2196 48.5951 48.9553 48.5951C43.8392 48.5951 43.6718 48.5428 43.9334 48.2812C44.8018 47.3919 45.5865 46.1887 45.848 44.996C46.0154 44.2637 46.6745 43.7196 47.5011 43.6255L47.9405 43.5732H48.202L48.2125 43.1756C48.2334 42.506 48.6205 41.8992 49.175 41.6899C51.4767 40.8006 50.7758 38.8442 49.4471 38.8442C48.9344 38.8442 49.0599 37.7352 49.6249 37.0656C50.8281 35.6427 52.8473 33.0062 52.8264 31.2171C52.8159 30.7882 52.7532 30.2441 52.6276 29.6896C52.4393 28.8003 51.7174 28.183 50.8804 28.183C50.7339 28.183 50.6084 28.0261 50.6084 27.8273V27.0531H53.2763C49.6458 25.285 50.5351 19.8132 54.5841 19.3633C54.741 19.3424 54.8979 19.3424 55.0444 19.3424C57.2833 19.3424 59.1038 21.1628 59.1038 23.4018C59.1038 24.992 58.1726 26.394 56.8125 27.0531H59.4804V27.8273C59.4804 28.0157 59.3549 28.183 59.2084 28.183C58.3714 28.183 57.66 28.8003 57.4612 29.6792C57.3357 30.2337 57.2729 30.7777 57.2624 31.2171C57.2415 33.0062 59.2503 35.6427 60.4534 37.0656C61.0289 37.7456 61.1439 38.8442 60.6208 38.8442C59.5223 38.8442 58.6644 40.5809 60.6941 41.5644C60.9556 41.6899 61.8763 41.9933 61.9077 43.1756L61.9182 43.5732H62.2216L62.6505 43.6255C63.4561 43.7301 64.1048 44.2741 64.2722 44.9856C64.4291 45.7284 64.8267 46.4921 65.2557 47.1199C66.0089 48.2289 66.3228 48.2603 66.2391 48.4486Z" fill="black"/>
<path d="M89.1324 49.4031C89.5154 49.4031 89.8547 49.1952 90.0298 48.8559C90.2049 48.5166 90.1831 48.1117 89.9642 47.8052C89.3294 46.8968 88.8806 45.9118 88.7165 45.0253C88.4866 43.8652 87.622 42.9786 86.5275 42.7269C86.4072 41.7747 85.8052 40.9429 84.9734 40.6255C84.0759 40.2753 83.8133 39.8047 83.868 39.5092C83.9008 39.3231 84.0759 39.1152 84.3824 39.1152C85.0172 39.1152 85.5425 38.568 85.5535 37.8784C85.8161 34.0697 84.5356 31.3117 81.8323 29.9107C81.1318 29.4839 80.5627 28.4879 80.3767 27.4044C80.902 27.2293 81.3507 26.9776 81.7666 26.7368C82.3905 26.3756 82.9377 26.0582 83.6929 26.0582C83.8571 26.0582 84.0322 26.0692 84.2073 26.102C84.4043 26.1458 85.0938 26.4851 85.5644 26.704C86.2211 27.0214 86.8449 27.3169 87.239 27.4373C87.4031 27.492 87.5892 27.5139 87.7862 27.5139C88.607 27.5139 89.4717 27.0432 90.1721 26.2224C90.796 25.4782 91.0915 24.5698 90.982 23.6504C90.8945 22.8624 90.5114 22.1291 89.9861 21.7242C86.2211 18.9004 84.8859 17.9045 84.4043 17.5433C83.9118 16.1314 82.5546 15.1574 80.3548 14.6539C80.4095 14.1505 80.4095 13.5704 80.1687 13.1436C79.8513 12.5854 79.2603 12.2461 78.6255 12.2461C78.5927 12.2461 78.5708 12.2461 78.538 12.2461C73.3064 12.4978 69.3992 15.2011 67.8122 19.6447C66.9366 22.1072 66.86 24.9747 67.6043 27.7218C68.3266 30.3923 69.7494 32.8111 71.7413 34.7373C71.4239 35.4378 71.0409 36.379 71.0518 37.5173C71.0409 37.6267 71.0409 37.7252 71.0409 37.8237C71.0409 37.9113 71.0518 37.9988 71.0628 38.0864V38.3709H71.1503C71.3364 38.7978 71.7523 39.1042 72.2229 39.1042C72.409 39.1042 72.595 39.2794 72.6497 39.4873C72.7264 39.8266 72.409 40.2096 71.7851 40.5052C71.7742 40.5161 71.7523 40.5161 71.7304 40.527C71.3364 40.7022 70.1763 41.2166 70.023 42.716C68.9505 42.9786 68.0968 43.8652 67.8779 45.0034C67.7028 45.879 67.265 46.864 66.6302 47.7833C66.4113 48.0898 66.3894 48.4947 66.5645 48.834C66.7396 49.1733 67.0899 49.3813 67.4729 49.3813H89.1324V49.4031Z" fill="white"/>
<path d="M65.9408 47.3338C66.5099 46.5239 66.9148 45.6264 67.0571 44.8712C67.3088 43.6016 68.1625 42.5838 69.2898 42.1132C69.443 41.544 69.7276 41.0406 70.1435 40.6247C70.6141 40.1431 71.1395 39.9133 71.3802 39.8038C71.3912 39.7929 71.4131 39.7929 71.424 39.782C71.424 39.782 71.424 39.782 71.435 39.782C71.1176 39.6397 70.844 39.4208 70.636 39.1472L70.242 39.1253L70.2311 38.195C70.2092 38.0855 70.2092 37.9761 70.2092 37.8557C70.2092 37.7353 70.2092 37.6259 70.2201 37.5055C70.2201 36.4986 70.4937 35.6339 70.7673 34.9444C68.8849 32.9853 67.5168 30.5885 66.8054 27.9508C66.0174 25.0395 66.094 21.9969 67.0352 19.3812C67.8342 17.1375 69.2351 15.2441 71.0957 13.8869C73.1204 12.4094 75.6049 11.5886 78.4943 11.4463C78.538 11.4463 78.5818 11.4463 78.6256 11.4463C79.5559 11.4463 80.4205 11.9497 80.8802 12.7596C81.0991 13.1427 81.1866 13.6024 81.2085 14.0402C83.2114 14.6202 84.5138 15.6271 85.0939 17.0499C85.7396 17.5315 87.1843 18.615 90.4896 21.0885C91.201 21.6248 91.6935 22.5551 91.8139 23.573C91.9452 24.7221 91.584 25.8494 90.807 26.7688C89.9642 27.7757 88.8698 28.3558 87.7972 28.3558C87.5236 28.3558 87.2609 28.312 87.0092 28.2463C86.5823 28.115 86.0461 27.8632 85.2143 27.4692C84.8203 27.2832 84.2511 27.0096 84.0322 26.933C83.9228 26.922 83.8133 26.9111 83.7039 26.9111C83.1895 26.9111 82.8283 27.1081 82.1826 27.4802C81.9309 27.6225 81.6573 27.7866 81.3617 27.9289C81.5697 28.509 81.8871 29.0015 82.2483 29.2313C84.3387 30.3258 86.7356 32.7336 86.3744 37.9542C86.3416 38.8079 85.8272 39.5302 85.1158 39.8257C85.1595 39.8476 85.2143 39.8695 85.269 39.8914C86.2212 40.2635 86.9435 41.1063 87.2281 42.1241C88.3882 42.551 89.2638 43.5797 89.5155 44.8712C89.6687 45.6264 90.0737 46.5348 90.6319 47.3447C91.0259 47.9029 91.0696 48.6362 90.7523 49.2491C90.4349 49.862 89.811 50.2341 89.1215 50.2341H67.4402C66.7507 50.2341 66.1268 49.851 65.8094 49.2381C65.503 48.6252 65.5467 47.9029 65.9408 47.3338ZM67.4511 48.5814H89.1324C89.2857 48.5814 89.3842 48.4063 89.2966 48.275C88.6728 47.3666 88.1255 46.2612 87.9176 45.1886C87.7425 44.2911 87.042 43.6126 86.1774 43.5031L85.7505 43.4484L85.7396 43.0216C85.7177 42.2883 85.2909 41.6316 84.6889 41.4018C82.1935 40.4386 82.9378 38.3044 84.3934 38.3044C84.5795 38.3044 84.7436 38.1074 84.7436 37.8557C84.9297 35.2071 84.4153 32.1645 81.4493 30.6432C80.2563 29.9318 79.5449 28.2682 79.5012 26.7688C81.0881 26.5937 81.898 25.2475 83.7039 25.2475C83.9119 25.2475 84.1307 25.2694 84.3606 25.3022C84.8312 25.3788 86.7793 26.4404 87.4907 26.6593C87.5783 26.6812 87.6768 26.7031 87.7972 26.7031C88.2569 26.7031 88.9245 26.4514 89.5483 25.7072C90.6537 24.4047 90.1284 22.8615 89.5046 22.3909C83.7258 18.0678 83.7039 18.0459 83.7039 18.0459C83.2552 16.2619 81.2085 15.6053 79.4027 15.3097C79.5231 14.872 79.6872 13.9636 79.4574 13.5586C79.2823 13.2522 78.9649 13.077 78.6256 13.077C78.6146 13.077 78.5928 13.077 78.5818 13.077C66.488 13.6681 64.901 27.5021 72.7374 34.5504C72.4528 35.2618 71.8618 36.2906 71.8837 37.5821C71.8727 37.6806 71.8618 37.7681 71.8618 37.8557C71.8618 38.1074 72.026 38.3154 72.223 38.3154C73.4159 38.3154 74.3572 40.1979 72.1464 41.2704C71.8509 41.4127 70.8549 41.752 70.8221 43.0325L70.8111 43.4594L70.3843 43.5141C69.5306 43.6345 68.8411 44.313 68.6769 45.1886C68.469 46.2612 67.9217 47.3666 67.2979 48.275C67.1994 48.4063 67.2869 48.5814 67.4511 48.5814Z" fill="black"/>
<path d="M54.037 49.0542C53.2473 49.0542 52.8609 48.1974 53.3733 47.6681C54.1546 46.8617 54.8854 45.7696 55.1207 44.7111C55.3391 43.7534 56.1707 43.0225 57.2124 42.8629C57.288 42.0649 57.8425 41.376 58.6154 41.1156C58.9598 40.998 59.2622 40.8552 59.5814 40.5779C59.9679 40.2419 59.7074 39.6371 59.1866 39.6371C58.5145 39.6371 58.1449 39.1582 58.1449 38.6878C58.1449 38.2257 58.2457 37.7637 58.4473 37.3605C61.0852 31.8832 62.0764 20.6431 61.0348 15.275C60.8751 14.4517 60.1275 13.8553 59.2538 13.8553C58.8674 13.8553 58.5481 13.5445 58.5481 13.1664V11.6459H60.8667C60.3795 10.9906 59.0858 9.2517 58.8254 8.70566C57.4729 5.82421 58.8338 1.87588 62.7569 3.07718V1.50625C63.5634 1.63226 63.5466 1.62386 63.6474 1.64066C63.6306 1.55666 63.6306 1.55666 63.4962 0.775391H66.3776C66.2348 1.55666 66.2348 1.55666 66.2264 1.64066C66.3272 1.62386 66.3104 1.63226 67.1169 1.50625V3.07718C71.0148 1.87588 72.4261 5.82421 71.0316 8.73086C70.7628 9.28531 69.4943 10.999 69.007 11.6459H71.3256C71.3256 13.2336 71.3844 13.3932 71.1156 13.6537C70.9812 13.7797 70.8132 13.8553 70.62 13.8553C69.6707 13.8553 68.9902 14.4937 68.839 15.275C67.7973 20.6347 68.7802 31.8832 71.4264 37.3605C71.628 37.7721 71.7289 38.2173 71.7289 38.6878C71.7289 39.1834 71.334 39.6455 70.7376 39.6455C70.2335 39.6455 69.9899 40.2587 70.3763 40.5863C70.704 40.8636 70.998 40.998 71.3928 41.1492C72.1321 41.4432 72.6361 42.1153 72.7033 42.8713C73.7282 43.0393 74.5431 43.7702 74.7531 44.7111C74.9883 45.778 75.7192 46.8785 76.5005 47.6765C77.0129 48.2058 76.6181 49.0626 75.8368 49.0626H54.037V49.0542Z" fill="#CB950B"/>
<path d="M76.9624 47.2317C76.2652 46.5092 75.5931 45.5263 75.3747 44.5686C75.1395 43.5185 74.3162 42.6785 73.2493 42.3424C73.0309 41.5528 72.4512 40.8723 71.6196 40.5447C71.2919 40.4187 71.1491 40.3515 71.0063 40.2591C71.7876 40.1331 72.3588 39.461 72.3588 38.6797C72.3588 38.1169 72.2328 37.5793 71.9976 37.0752C69.4522 31.7996 68.4609 20.551 69.4606 15.393C69.553 14.9057 69.9814 14.4941 70.6115 14.4941C71.3676 14.4941 71.9556 13.8809 71.9556 13.15C71.9556 12.4023 71.9556 11.7471 71.9556 10.9994C70.9643 10.9994 70.8971 10.9994 70.2671 10.9994C71.2583 9.6301 71.9892 8.69763 72.1488 7.05109C72.4344 4.24525 70.7711 1.80065 67.7469 2.26269C67.7469 2.09467 67.7469 0.926973 67.7469 0.758959L67.0076 0.868168L67.142 0.128906C66.2767 0.128906 63.6557 0.128906 62.7232 0.128906L62.8576 0.868168L62.1184 0.758959C62.1184 0.935374 62.1184 2.09467 62.1184 2.26269C58.8841 1.76704 57.204 4.59808 57.8004 7.63914C58.044 8.86564 58.5901 9.6133 59.5898 10.9994C58.5901 10.9994 58.5229 10.9994 57.9012 10.9994C57.9012 11.4615 57.9012 11.7639 57.9012 11.9487C57.9012 12.1503 57.9012 12.2175 57.9012 12.2175C57.9012 12.4023 57.9012 12.7048 57.9012 13.1668C57.9012 13.8977 58.5061 14.4941 59.2537 14.4941C59.8166 14.4941 60.3038 14.8721 60.4046 15.393C61.4127 20.551 60.4214 31.7996 57.8676 37.0752C57.6324 37.5709 57.5064 38.1253 57.5064 38.6881C57.5064 39.503 58.128 40.1751 58.9177 40.2675C58.7833 40.3515 58.6321 40.4271 58.4641 40.4859C57.4812 40.8219 56.8847 41.5276 56.6495 42.334C55.5658 42.6533 54.7258 43.5017 54.4821 44.577C54.2637 45.5431 53.5917 46.526 52.9028 47.2317C52.0039 48.1641 52.6844 49.7015 54.0369 49.7015H75.8283C77.1976 49.7015 77.8613 48.1641 76.9624 47.2317ZM76.0803 48.2817C75.9963 48.475 77.3069 48.4078 54.0453 48.4078C53.8521 48.4078 53.7177 48.2481 53.8437 48.1137C54.709 47.2233 55.4986 46.022 55.759 44.8459C55.9187 44.1234 56.5823 43.5774 57.4056 43.4849L57.8424 43.4345C57.8592 43.0397 57.7668 42.0904 58.9093 41.6956C61.2531 40.8807 60.5306 38.9906 59.1361 38.9906C58.9597 38.9906 58.8085 38.8478 58.8085 38.6797C58.8085 38.3101 58.8925 37.9489 59.0437 37.6297C61.7824 31.9508 62.7148 20.4838 61.6815 15.1494C61.4631 14.0321 60.4466 13.2172 59.2705 13.2088C59.1865 13.2088 59.2033 13.234 59.2033 12.2847H62.1772C61.7992 11.7807 59.741 9.08406 59.4302 8.4288C58.17 5.74058 59.531 1.70824 64.0925 4.36286C64.1766 4.42167 64.0505 4.34606 64.395 4.53928C64.4202 4.16124 64.4286 3.674 64.437 3.45559C64.1009 3.47239 63.7565 3.50599 63.4205 3.55639V2.25428C63.7481 2.30469 64.0757 2.33829 64.4034 2.35509C64.3782 2.04427 64.3362 1.73344 64.2774 1.42261H65.6215C65.5627 1.73344 65.5291 2.04427 65.5039 2.35509C65.8315 2.33829 66.1591 2.30469 66.4867 2.25428V3.55639C66.1507 3.50599 65.8147 3.47239 65.4787 3.45559C65.4871 3.6824 65.4955 4.16965 65.5207 4.53928C65.8735 4.32926 66.6044 3.86722 67.5032 3.632C70.0402 2.95994 71.1071 4.88371 70.8971 6.92508C70.7627 8.28599 70.2839 8.90764 67.7301 12.2847H70.6955C70.6955 13.2004 70.7207 13.2088 70.6367 13.2088C69.3682 13.2088 68.4357 14.0657 68.2257 15.1494C67.184 20.4838 68.1249 31.9508 70.8635 37.6297C71.0231 37.9573 71.0987 38.3017 71.0987 38.6713C71.0987 38.8478 70.9475 38.9906 70.7711 38.9906C70.2251 38.9906 69.8134 39.3014 69.637 39.7382C69.2338 40.7463 70.1663 41.3512 71.1743 41.7376C71.712 41.9476 72.0648 42.4517 72.0816 43.0145L72.09 43.4345L72.5185 43.4849C73.3249 43.5858 73.9718 44.1318 74.1314 44.8459C74.291 45.5851 74.6774 46.3496 75.1059 46.9712C75.8451 48.0717 76.156 48.0969 76.0803 48.2817Z" fill="black"/>
</svg>
