<svg width="15" height="15" viewBox="0 0 15 15" fill="none" xmlns="http://www.w3.org/2000/svg">
<path d="M11.8769 5.88377H10.8004C10.8 5.45562 10.6297 5.04513 10.3269 4.74238C10.0242 4.43964 9.6137 4.26937 9.18555 4.26894V3.19238C9.89909 3.19324 10.5832 3.47707 11.0877 3.98162C11.5923 4.48616 11.8761 5.17023 11.8769 5.88377Z" fill="#9AA1AF"/>
<path d="M14.03 5.88356H12.9535C12.9524 4.88459 12.555 3.92686 11.8486 3.22048C11.1422 2.5141 10.1845 2.11676 9.18555 2.11562V1.03906C10.47 1.04049 11.7013 1.55135 12.6096 2.45956C13.5178 3.36777 14.0286 4.59916 14.03 5.88356Z" fill="#9AA1AF"/>
<path d="M12.9535 14.4962H12.862C2.28483 13.8879 0.783038 4.9633 0.573109 2.23961C0.540299 1.81262 0.678441 1.39009 0.95715 1.06494C1.23586 0.7398 1.63231 0.53868 2.05929 0.505822C2.102 0.502592 2.14488 0.500977 2.18794 0.500977H5.02467C5.24028 0.500768 5.45098 0.565306 5.62949 0.686232C5.808 0.807157 5.94609 0.978897 6.02586 1.17921L6.84405 3.19237C6.92282 3.38805 6.94237 3.60258 6.90027 3.80928C6.85816 4.01599 6.75625 4.20577 6.6072 4.35505L5.46067 5.51234C5.63904 6.5304 6.12619 7.46897 6.85607 8.20078C7.58595 8.93258 8.52323 9.42221 9.54082 9.60325L10.7089 8.44596C10.8604 8.29855 11.052 8.19902 11.2597 8.15977C11.4674 8.12053 11.6821 8.1433 11.8769 8.22526L13.9063 9.03806C14.1035 9.12036 14.2719 9.25952 14.3898 9.43782C14.5077 9.61613 14.5698 9.8255 14.5683 10.0393V12.8814C14.5683 13.3096 14.3982 13.7204 14.0954 14.0232C13.7925 14.3261 13.3818 14.4962 12.9535 14.4962ZM2.18794 1.57753C2.11726 1.57732 2.04722 1.59103 1.98183 1.61789C1.91644 1.64474 1.85698 1.68421 1.80685 1.73405C1.75672 1.78388 1.71689 1.8431 1.68964 1.90833C1.66239 1.97355 1.64826 2.04351 1.64805 2.1142C1.64805 2.12927 1.64859 2.14416 1.64967 2.15887C1.89727 5.34548 3.48519 12.8814 12.9212 13.4196C13.0637 13.4282 13.2037 13.3798 13.3105 13.2851C13.4173 13.1904 13.4821 13.0572 13.4907 12.9147L13.4918 12.8814V10.0393L11.4625 9.22646L9.91761 10.7606L9.65924 10.7283C4.97622 10.1415 4.34105 5.45852 4.34105 5.41007L4.30876 5.1517L5.83747 3.60684L5.03005 1.57753H2.18794Z" fill="#9AA1AF"/>
</svg>
