<svg width="31" height="31" viewBox="0 0 31 31" fill="none" xmlns="http://www.w3.org/2000/svg">
<path d="M30.4685 15.0654C30.4685 11.0872 28.8882 7.27187 26.0751 4.45883C23.2621 1.64578 19.4468 0.0654297 15.4685 0.0654297C11.4903 0.0654297 7.67495 1.64578 4.8619 4.45883C2.04886 7.27187 0.468506 11.0872 0.468506 15.0654C0.468506 19.0437 2.04886 22.859 4.8619 25.672C7.67495 28.4851 11.4903 30.0654 15.4685 30.0654C19.4468 30.0654 23.2621 28.4851 26.0751 25.672C28.8882 22.859 30.4685 19.0437 30.4685 15.0654ZM16.406 21.6279C16.406 21.8766 16.3072 22.115 16.1314 22.2908C15.9556 22.4667 15.7171 22.5654 15.4685 22.5654C15.2199 22.5654 14.9814 22.4667 14.8056 22.2908C14.6298 22.115 14.531 21.8766 14.531 21.6279V10.7661L10.5073 14.7917C10.3312 14.9677 10.0925 15.0666 9.84351 15.0666C9.59455 15.0666 9.35579 14.9677 9.17976 14.7917C9.00372 14.6156 8.90482 14.3769 8.90482 14.1279C8.90482 13.879 9.00372 13.6402 9.17976 13.4642L14.8048 7.83918C14.8918 7.75187 14.9953 7.68261 15.1092 7.63534C15.2231 7.58808 15.3452 7.56375 15.4685 7.56375C15.5918 7.56375 15.7139 7.58808 15.8278 7.63534C15.9417 7.68261 16.0452 7.75187 16.1323 7.83918L21.7573 13.4642C21.9333 13.6402 22.0322 13.879 22.0322 14.1279C22.0322 14.3769 21.9333 14.6156 21.7573 14.7917C21.5812 14.9677 21.3425 15.0666 21.0935 15.0666C20.8446 15.0666 20.6058 14.9677 20.4298 14.7917L16.406 10.7661V21.6279Z" fill="#F50833"/>
</svg>
