<svg width="44" height="35" viewBox="0 0 44 35" fill="none" xmlns="http://www.w3.org/2000/svg">
<path d="M22.7 15.2008C23.257 15.2008 23.7911 15.422 24.1849 15.8159C24.5788 16.2097 24.8 16.7438 24.8 17.3008C24.8 17.4864 24.8737 17.6645 25.005 17.7958C25.1363 17.927 25.3143 18.0008 25.5 18.0008C25.6857 18.0008 25.8637 17.927 25.995 17.7958C26.1262 17.6645 26.2 17.4864 26.2 17.3008C26.2 16.3725 25.8313 15.4823 25.1749 14.8259C24.5185 14.1695 23.6283 13.8008 22.7 13.8008C22.5143 13.8008 22.3363 13.8745 22.205 14.0058C22.0737 14.1371 22 14.3151 22 14.5008C22 14.6864 22.0737 14.8645 22.205 14.9958C22.3363 15.127 22.5143 15.2008 22.7 15.2008Z" fill="black"/>
<path d="M22.7 12.4C23.9996 12.4 25.2459 12.9162 26.1648 13.8352C27.0837 14.7541 27.6 16.0004 27.6 17.3C27.6 17.4857 27.6737 17.6637 27.805 17.795C27.9363 17.9262 28.1143 18 28.3 18C28.4856 18 28.6637 17.9262 28.795 17.795C28.9262 17.6637 29 17.4857 29 17.3C29 15.6291 28.3362 14.0267 27.1548 12.8452C25.9733 11.6637 24.3709 11 22.7 11C22.5143 11 22.3363 11.0737 22.205 11.205C22.0737 11.3363 22 11.5143 22 11.7C22 11.8857 22.0737 12.0637 22.205 12.195C22.3363 12.3262 22.5143 12.4 22.7 12.4ZM28.825 20.737C28.7865 20.6246 28.72 20.5239 28.6319 20.4443C28.5437 20.3647 28.4367 20.3088 28.321 20.282L24.121 19.323C24.007 19.2971 23.8883 19.3003 23.7758 19.3321C23.6633 19.3638 23.5606 19.4233 23.477 19.505C23.379 19.596 23.372 19.603 22.917 20.471C21.4072 19.7753 20.1975 18.5606 19.508 17.048C20.397 16.6 20.404 16.6 20.495 16.495C20.5767 16.4114 20.6362 16.3086 20.6679 16.1962C20.6997 16.0837 20.7028 15.965 20.677 15.851L19.718 11.7C19.6912 11.5843 19.6353 11.4773 19.5557 11.3891C19.4761 11.301 19.3754 11.2345 19.263 11.196C19.0995 11.1376 18.9307 11.0954 18.759 11.07C18.5821 11.029 18.4015 11.0055 18.22 11C17.366 11 16.547 11.3392 15.9431 11.9431C15.3392 12.547 15 13.366 15 14.22C15.0037 17.0779 16.1406 19.8177 18.1615 21.8385C20.1823 23.8594 22.9221 24.9963 25.78 25C26.2029 25 26.6216 24.9167 27.0122 24.7549C27.4029 24.5931 27.7579 24.3559 28.0569 24.0569C28.3559 23.7579 28.5931 23.4029 28.7549 23.0122C28.9167 22.6216 29 22.2029 29 21.78C29.0002 21.6018 28.9862 21.4239 28.958 21.248C28.9286 21.0741 28.8841 20.9031 28.825 20.737ZM25.78 23.6C23.2928 23.5981 20.9081 22.6093 19.1494 20.8506C17.3907 19.0919 16.4019 16.7072 16.4 14.22C16.4018 13.7379 16.5942 13.276 16.9351 12.9351C17.276 12.5942 17.7379 12.4018 18.22 12.4H18.451L19.2 15.648L18.822 15.844C18.22 16.159 17.744 16.411 17.996 16.957C18.4064 18.1187 19.0703 19.1744 19.9397 20.0474C20.8091 20.9204 21.862 21.5888 23.022 22.004C23.61 22.242 23.841 21.801 24.156 21.192L24.359 20.807L27.6 21.549V21.78C27.5982 22.2621 27.4058 22.724 27.0649 23.0649C26.724 23.4058 26.2621 23.5982 25.78 23.6Z" fill="black"/>
<rect x="0.5" y="0.5" width="43" height="34" rx="17" stroke="#E7EAEE"/>
</svg>
