<svg width="13" height="14" viewBox="0 0 13 14" fill="none" xmlns="http://www.w3.org/2000/svg">
<path d="M8.84043 8.14188C8.07168 8.14188 7.70204 8.57045 6.44043 8.57045C5.17882 8.57045 4.81186 8.14188 4.04043 8.14188C2.05293 8.14188 0.44043 9.75438 0.44043 11.7419V12.4276C0.44043 13.1374 1.01632 13.7133 1.72614 13.7133H11.1547C11.8645 13.7133 12.4404 13.1374 12.4404 12.4276V11.7419C12.4404 9.75438 10.8279 8.14188 8.84043 8.14188ZM11.1547 12.4276H1.72614V11.7419C1.72614 10.4669 2.76543 9.4276 4.04043 9.4276C4.4315 9.4276 5.06632 9.85617 6.44043 9.85617C7.82525 9.85617 8.44668 9.4276 8.84043 9.4276C10.1154 9.4276 11.1547 10.4669 11.1547 11.7419V12.4276ZM6.44043 7.71331C8.56989 7.71331 10.2976 5.98563 10.2976 3.85617C10.2976 1.7267 8.56989 -0.000976562 6.44043 -0.000976562C4.31097 -0.000976562 2.58329 1.7267 2.58329 3.85617C2.58329 5.98563 4.31097 7.71331 6.44043 7.71331ZM6.44043 1.28474C7.85739 1.28474 9.01186 2.4392 9.01186 3.85617C9.01186 5.27313 7.85739 6.4276 6.44043 6.4276C5.02347 6.4276 3.869 5.27313 3.869 3.85617C3.869 2.4392 5.02347 1.28474 6.44043 1.28474Z" fill="#9AA1AF"/>
</svg>
